# Blender v3.1.2 OBJ File: 'untitl1111111111ed (1).blend'
# www.blender.org
mtllib LongPlank.mtl
o Cube.025_Cube.059
v -4.931297 0.178443 6.431350
v -4.786276 0.178443 5.533389
v 2.548735 0.178443 7.639380
v 2.693756 0.178443 6.741418
v -4.851396 0.178443 5.936606
v -3.519155 0.320762 6.150605
v -4.797592 0.290835 5.958524
v -4.924088 0.320762 6.427435
v -4.931297 0.314270 6.431350
v -4.780666 0.320762 5.539374
v -4.786276 0.314270 5.533389
v 2.543126 0.320762 7.633394
v 2.548735 0.314270 7.639380
v 2.686548 0.320762 6.745333
v 2.693756 0.314270 6.741418
v -4.856364 0.314270 5.967372
v -4.850167 0.320762 5.969718
v -4.851040 0.317941 5.967870
v -4.843917 0.320762 5.931015
v -4.850370 0.314270 5.930257
v -4.845358 0.317945 5.932643
v 2.661206 0.320762 6.902249
v 2.657419 0.320762 6.925698
v -3.216568 0.320762 5.960212
v 2.622770 0.301193 6.904541
v 2.665771 0.178443 6.914701
v 2.629091 0.294701 6.906120
v 2.667897 0.314270 6.901536
v 2.663707 0.314270 6.927479
v 0.873686 0.178443 7.295715
v 0.873686 0.320762 7.295715
v 0.933936 0.178443 7.319998
v 0.933936 0.320762 7.319998
v 0.970476 0.178443 7.364937
v 0.970476 0.320762 7.364937
v 0.970946 0.178443 7.384565
v 0.970824 0.320762 7.379467
v 0.970946 0.314270 7.384565
v 0.753402 0.314270 7.349432
v 0.753402 0.178443 7.349432
v 0.760026 0.320762 7.330949
v 0.755122 0.320762 7.344631
v 0.760026 0.178443 7.330949
v 0.808855 0.178443 7.299797
v 0.808855 0.320762 7.299797
vt 0.613596 0.141780
vt 0.613596 0.250000
vt 0.375000 0.250000
vt 0.375000 0.137741
vt 0.375000 0.500000
vt 0.613596 0.500000
vt 0.613596 0.541395
vt 0.375000 0.548243
vt 0.875000 0.623092
vt 0.874947 0.623789
vt 0.864070 0.611945
vt 0.875000 0.615848
vt 0.375000 0.000000
vt 0.613596 0.000000
vt 0.613596 0.126682
vt 0.625000 0.126908
vt 0.625000 0.134152
vt 0.874947 0.608046
vt 0.875000 0.608763
vt 0.625000 0.141237
vt 0.624899 0.126158
vt 0.619300 0.126418
vt 0.625000 0.141966
vt 0.619812 0.141885
vt 0.625000 0.248652
vt 0.625000 0.250258
vt 0.625000 0.499742
vt 0.625258 0.501378
vt 0.625258 0.534930
vt 0.625000 0.001350
vt 0.625000 0.126154
vt 0.810843 0.546924
vt 0.625258 0.547371
vt 0.625258 0.561817
vt 0.613596 0.547522
vt 0.613596 0.552707
vt 0.613596 0.750000
vt 0.375000 0.750000
vt 0.625258 0.748622
vt 1.000000 0.736003
vt 0.909091 0.849620
vt 1.000000 0.849620
vt 0.818182 0.736003
vt 0.909091 0.736003
vt 0.783416 0.736003
vt 0.783416 0.844437
vt 0.181818 0.849620
vt 0.216584 0.844437
vt 0.181818 0.736003
vt 0.090909 0.849620
vt 0.090909 0.736003
vt -0.000000 0.849620
vt 0.641692 0.731484
vt 0.639173 0.735137
vt 0.625000 0.999742
vt 0.613596 1.000000
vt 0.613596 0.771070
vt 0.625000 0.771033
vt 0.613596 0.762310
vt 0.625000 0.750258
vt 0.625000 0.762347
vt 0.375000 0.762310
vt 0.375000 1.000000
vt 0.375000 0.771070
vt 0.818182 0.849620
vt 0.792447 0.849620
vt 0.207553 0.849620
vt 0.216584 0.736003
vt -0.000000 0.736003
vt 0.637453 0.744974
vt 0.637347 0.748623
vt 0.874742 0.501345
vt 0.874742 0.748651
vt 0.646033 0.748624
vt 0.645928 0.744979
vt 0.644210 0.735153
vn -0.9872 0.0000 -0.1594
vn 0.9872 -0.0000 0.1594
vn 0.1151 0.5190 -0.8470
vn -0.0595 0.2185 -0.9740
vn -0.1369 0.5471 0.8258
vn 0.1594 0.0000 -0.9872
vn -0.4561 0.0450 0.8888
vn -0.3356 0.5865 -0.7371
vn -0.6570 0.5999 0.4565
vn -0.6981 0.7071 -0.1127
vn 0.1262 0.6112 -0.7813
vn 0.6981 0.7071 0.1127
vn -0.1456 0.3923 0.9083
vn 0.1279 0.6149 -0.7782
vn 0.0364 0.1028 0.9940
vn 0.4323 0.1919 -0.8810
vn 0.0693 0.0952 0.9930
vn 0.4860 0.0892 -0.8694
vn -0.3738 0.0000 0.9275
vn -0.7759 0.0000 0.6309
vn -0.9997 0.0000 0.0239
vn 0.9414 0.0000 0.3374
vn 0.5378 0.0000 0.8431
vn 0.0628 0.0000 0.9980
vn 0.0000 1.0000 0.0000
vn -0.1262 0.6113 0.7813
vn -0.1594 0.0000 0.9872
vn 0.9414 0.0001 0.3374
vn 0.5379 0.0000 0.8430
usemtl None
s off
f 20/1/1 11/2/1 2/3/1 5/4/1
f 4/5/2 15/6/2 28/7/2 26/8/2
f 18/9/3 17/10/3 6/11/3 7/12/3
f 1/13/1 9/14/1 16/15/1 5/4/1
f 5/4/4 16/15/4 18/16/4 7/17/4
f 7/12/5 6/11/5 19/18/5 21/19/5
f 2/3/6 11/2/6 15/6/6 4/5/6
f 7/17/7 21/20/7 20/1/7 5/4/7
f 16/15/8 17/21/8 18/22/8
f 19/23/9 20/1/9 21/24/9
f 19/23/10 10/25/10 11/2/10 20/1/10
f 10/26/11 14/27/11 15/6/11 11/2/11
f 14/28/12 22/29/12 28/7/12 15/6/12
f 8/30/10 17/31/10 16/15/10 9/14/10
f 22/29/13 24/32/13 25/33/13
f 25/33/14 24/32/14 23/34/14
f 28/7/15 22/29/15 25/33/15 27/35/15
f 27/35/16 25/33/16 23/34/16 29/36/16
f 26/8/17 28/7/17 27/35/17
f 27/35/18 29/36/18 26/8/18
f 26/8/2 29/36/2 13/37/2 3/38/2
f 29/36/12 23/34/12 12/39/12 13/37/12
f 30/40/19 33/41/19 31/42/19
f 34/43/20 33/41/20 32/44/20
f 34/43/21 36/45/21 38/46/21
f 41/47/22 39/48/22 43/49/22
f 43/49/23 45/50/23 41/47/23
f 44/51/24 31/52/24 45/50/24
f 31/53/25 33/54/25 23/34/25
f 8/55/26 9/56/26 39/57/26 42/58/26
f 38/59/26 13/37/26 12/60/26 37/61/26
f 3/38/27 13/37/27 38/59/27 36/62/27
f 9/56/27 1/63/27 40/64/27 39/57/27
f 30/40/19 32/44/19 33/41/19
f 34/43/20 35/65/20 33/41/20
f 38/46/21 37/66/21 35/65/21
f 35/65/21 34/43/21 38/46/21
f 42/67/28 39/48/28 41/47/28
f 39/48/22 40/68/22 43/49/22
f 43/49/29 44/51/29 45/50/29
f 44/51/24 30/69/24 31/52/24
f 35/70/25 37/71/25 12/39/25
f 24/32/25 22/29/25 14/28/25
f 10/72/25 19/18/25 6/11/25
f 6/11/25 17/10/25 8/73/25
f 8/73/25 42/74/25 6/11/25
f 42/74/25 41/75/25 24/32/25
f 6/11/25 42/74/25 24/32/25
f 41/75/25 45/76/25 24/32/25
f 45/76/25 31/53/25 23/34/25
f 24/32/25 45/76/25 23/34/25
f 24/32/25 14/28/25 10/72/25
f 35/70/25 12/39/25 33/54/25
f 12/39/25 23/34/25 33/54/25
f 24/32/25 10/72/25 6/11/25
