# Blender v3.1.2 OBJ File: 'untitl1111111111ed (1).blend'
# www.blender.org
mtllib MediumPlank.mtl
o Cube.024_Cube.058
v -4.279626 0.178443 7.821026
v -4.012523 0.178443 6.673987
v 1.844867 0.178443 9.247195
v 2.111970 0.178443 8.100157
v -4.132462 0.178443 7.189049
v -2.817967 0.320762 7.493627
v -4.081162 0.290835 7.218357
v -4.271831 0.320762 7.816175
v -4.279626 0.314270 7.821026
v -4.007672 0.320762 6.681783
v -4.012523 0.314270 6.673987
v 1.840016 0.320762 9.239400
v 1.844867 0.314270 9.247195
v 2.104174 0.320762 8.105007
v 2.111970 0.314270 8.100157
v -4.141613 0.314270 7.228350
v -4.135680 0.320762 7.231495
v -4.136312 0.317941 7.229109
v -4.124167 0.320762 7.182058
v -4.130573 0.314270 7.180940
v -4.125840 0.317945 7.184110
v 2.057499 0.320762 8.305449
v 2.050524 0.320762 8.335402
v -2.487239 0.320762 7.256630
v 2.018436 0.301193 8.307508
v 2.060426 0.178443 8.321505
v 2.024597 0.294701 8.309674
v 2.064342 0.314270 8.304688
v 2.056625 0.314270 8.337828
v -1.283573 0.178443 8.414698
v -1.283573 0.320762 8.414698
v -1.226091 0.178443 8.447183
v -1.226091 0.320762 8.447183
v -1.195297 0.178443 8.505587
v -1.195297 0.320762 8.505587
v -1.198142 0.178443 8.538590
v -1.197579 0.320762 8.532056
v -1.198142 0.314270 8.538590
v -1.414947 0.178443 8.488105
v -1.414947 0.314270 8.488105
v -1.412566 0.320762 8.481993
v -1.402919 0.320762 8.457239
v -1.402919 0.178443 8.457239
v -1.349492 0.178443 8.418447
v -1.349492 0.320762 8.418447
vt 0.613596 0.141780
vt 0.613596 0.250000
vt 0.375000 0.250000
vt 0.375000 0.137741
vt 0.375000 0.500000
vt 0.613596 0.500000
vt 0.613596 0.541395
vt 0.375000 0.548243
vt 0.875000 0.623092
vt 0.874947 0.623789
vt 0.864070 0.611945
vt 0.875000 0.615848
vt 0.375000 0.000000
vt 0.613596 0.000000
vt 0.613596 0.126682
vt 0.625000 0.126908
vt 0.625000 0.134152
vt 0.874947 0.608046
vt 0.875000 0.608763
vt 0.625000 0.141237
vt 0.624899 0.126158
vt 0.619300 0.126418
vt 0.625000 0.141966
vt 0.619812 0.141885
vt 0.625000 0.248652
vt 0.625000 0.250258
vt 0.625000 0.499742
vt 0.625258 0.501378
vt 0.625258 0.534930
vt 0.625000 0.001350
vt 0.625000 0.126154
vt 0.810843 0.546924
vt 0.625258 0.547371
vt 0.625258 0.561817
vt 0.613596 0.547522
vt 0.613596 0.552707
vt 0.613596 0.750000
vt 0.375000 0.750000
vt 0.625258 0.748622
vt 1.000000 0.736003
vt 0.909091 0.849620
vt 1.000000 0.849620
vt 0.818182 0.736003
vt 0.909091 0.736003
vt 0.772572 0.736003
vt 0.772572 0.844437
vt 0.181818 0.849620
vt 0.218397 0.849620
vt 0.227428 0.844437
vt 0.181818 0.736003
vt 0.090909 0.849620
vt 0.090909 0.736003
vt -0.000000 0.849620
vt 0.749405 0.743243
vt 0.749252 0.748636
vt 0.625000 0.999742
vt 0.613596 1.000000
vt 0.613596 0.883065
vt 0.625000 0.883028
vt 0.613596 0.874215
vt 0.625000 0.750258
vt 0.625000 0.874252
vt 0.375000 0.874215
vt 0.375000 1.000000
vt 0.375000 0.883065
vt 0.818182 0.849620
vt 0.781602 0.849620
vt 0.227428 0.736003
vt -0.000000 0.736003
vt 0.874742 0.501345
vt 0.874742 0.748651
vt 0.758028 0.748638
vt 0.757880 0.743222
vt 0.756166 0.732962
vt 0.753649 0.729161
vt 0.751128 0.733001
vn -0.9739 0.0000 -0.2268
vn 0.9739 0.0000 0.2268
vn 0.1534 0.6180 -0.7711
vn -0.0524 0.2743 -0.9602
vn -0.1771 0.6460 0.7425
vn 0.2268 0.0000 -0.9739
vn -0.5856 0.0564 0.8086
vn -0.3529 0.6491 -0.6739
vn -0.7033 0.6413 0.3068
vn -0.6887 0.7071 -0.1604
vn 0.1604 0.7071 -0.6887
vn 0.6887 0.7071 0.1604
vn -0.1969 0.4829 0.8533
vn 0.1629 0.7098 -0.6853
vn 0.0236 0.1310 0.9911
vn 0.5522 0.2391 -0.7987
vn 0.0648 0.1208 0.9906
vn 0.6170 0.1109 -0.7791
vn -0.4920 0.0000 0.8706
vn -0.8846 0.0000 0.4664
vn -0.9963 0.0000 -0.0859
vn 0.9318 0.0001 0.3631
vn 0.5875 0.0000 0.8092
vn 0.0568 0.0000 0.9984
vn 0.0000 1.0000 0.0000
vn -0.1604 0.7071 0.6887
vn -0.2268 0.0000 0.9739
vn -0.9963 -0.0001 -0.0859
vn 0.9318 0.0000 0.3631
vn 0.9317 0.0000 0.3631
usemtl None
s off
f 20/1/1 11/2/1 2/3/1 5/4/1
f 4/5/2 15/6/2 28/7/2 26/8/2
f 18/9/3 17/10/3 6/11/3 7/12/3
f 1/13/1 9/14/1 16/15/1 5/4/1
f 5/4/4 16/15/4 18/16/4 7/17/4
f 7/12/5 6/11/5 19/18/5 21/19/5
f 2/3/6 11/2/6 15/6/6 4/5/6
f 7/17/7 21/20/7 20/1/7 5/4/7
f 16/15/8 17/21/8 18/22/8
f 19/23/9 20/1/9 21/24/9
f 19/23/10 10/25/10 11/2/10 20/1/10
f 10/26/11 14/27/11 15/6/11 11/2/11
f 14/28/12 22/29/12 28/7/12 15/6/12
f 8/30/10 17/31/10 16/15/10 9/14/10
f 22/29/13 24/32/13 25/33/13
f 25/33/14 24/32/14 23/34/14
f 28/7/15 22/29/15 25/33/15 27/35/15
f 27/35/16 25/33/16 23/34/16 29/36/16
f 26/8/17 28/7/17 27/35/17
f 27/35/18 29/36/18 26/8/18
f 26/8/2 29/36/2 13/37/2 3/38/2
f 29/36/12 23/34/12 12/39/12 13/37/12
f 30/40/19 33/41/19 31/42/19
f 34/43/20 33/41/20 32/44/20
f 34/43/21 36/45/21 38/46/21
f 42/47/22 41/48/22 40/49/22
f 43/50/23 45/51/23 42/47/23
f 44/52/24 31/53/24 45/51/24
f 35/54/25 37/55/25 12/39/25
f 8/56/26 9/57/26 40/58/26 41/59/26
f 38/60/26 13/37/26 12/61/26 37/62/26
f 36/63/27 3/38/27 13/37/27 38/60/27
f 9/57/27 1/64/27 39/65/27 40/58/27
f 30/40/19 32/44/19 33/41/19
f 34/43/20 35/66/20 33/41/20
f 37/67/28 35/66/28 38/46/28
f 35/66/21 34/43/21 38/46/21
f 39/68/29 43/50/29 40/49/29
f 43/50/30 42/47/30 40/49/30
f 43/50/23 44/52/23 45/51/23
f 44/52/24 30/69/24 31/53/24
f 10/70/25 19/18/25 6/11/25
f 6/11/25 17/10/25 8/71/25
f 8/71/25 41/72/25 6/11/25
f 41/72/25 42/73/25 6/11/25
f 42/73/25 45/74/25 24/32/25
f 6/11/25 42/73/25 24/32/25
f 45/74/25 31/75/25 24/32/25
f 22/29/25 14/28/25 24/32/25
f 14/28/25 10/70/25 24/32/25
f 12/39/25 23/34/25 35/54/25
f 23/34/25 24/32/25 31/75/25
f 33/76/25 23/34/25 31/75/25
f 10/70/25 6/11/25 24/32/25
f 23/34/25 33/76/25 35/54/25
