# Blender v3.1.2 OBJ File: 'untitl1111111111ed (1).blend'
# www.blender.org
mtllib PallkrageMedium.mtl
o Cube.022_Cube.056
v 5.577065 0.399724 3.451668
v 5.577065 2.822466 3.451668
v 5.577065 0.399724 -0.989381
v 5.577065 2.822466 -0.989381
v 12.555064 0.399724 3.451668
v 12.555064 2.822466 3.415882
v 12.555064 0.399724 -0.989381
v 12.555064 2.822466 -0.989381
v 5.577065 2.298615 3.451668
v 5.577065 2.298615 -0.989381
v 12.555064 2.298615 -0.989381
v 12.555064 2.298615 3.451668
v 5.577065 1.570707 -0.989381
v 12.555064 1.570707 -0.989381
v 12.555064 1.570707 3.451668
v 5.577065 1.570707 3.451668
v 12.343182 0.399724 -0.989381
v 12.343182 2.649875 -0.989381
v 12.343182 0.399724 3.451668
v 12.343182 2.822466 3.451668
v 12.343182 2.298615 3.451668
v 12.343182 2.298615 -0.989381
v 12.343182 1.570707 -0.989381
v 12.343182 1.570707 3.451668
v 5.819737 0.399724 -0.989381
v 5.819737 2.822466 3.451668
v 5.819737 2.298615 3.451668
v 5.819737 1.570707 3.451668
v 5.819737 2.822466 -0.989381
v 5.819737 0.399724 3.451668
v 5.819737 2.298615 -0.989381
v 5.819737 1.570707 -0.989381
v 5.577065 0.399724 3.197240
v 5.577065 2.822466 3.197240
v 12.555064 0.399724 3.197240
v 12.555064 2.822466 3.197240
v 12.555064 2.298615 3.197240
v 5.577065 2.298615 3.197240
v 5.577065 1.570707 3.197240
v 12.555064 1.570707 3.197240
v 12.343182 2.822466 3.197240
v 5.819737 2.822466 3.197240
v 5.577065 2.822466 -0.747276
v 12.555064 0.399724 -0.747276
v 5.577065 2.298615 -0.747276
v 5.577065 1.570707 -0.747276
v 5.577065 0.399724 -0.747276
v 12.555064 2.822466 -0.747276
v 12.555064 2.298615 -0.747276
v 12.555064 1.570707 -0.747276
v 12.343182 2.649875 -0.747276
v 5.819737 2.822466 -0.747276
v 5.577065 2.298615 3.828570
v 5.577065 2.822466 3.769948
v 5.819737 2.822466 3.828570
v 5.819737 2.298615 3.828570
v 5.577065 0.399724 3.662377
v 5.577065 1.570707 3.603755
v 5.819737 1.570707 3.662377
v 5.819737 0.399724 3.662377
v 5.465495 1.570707 3.451668
v 5.465495 2.298615 3.451668
v 5.523639 2.298615 3.197240
v 5.465495 1.570707 3.197240
v 12.555064 2.298615 3.611535
v 12.555064 1.570707 3.611535
v 12.343182 2.298615 3.561926
v 12.343182 1.570707 3.611535
v 5.577065 2.916100 3.197240
v 5.819737 2.916100 3.197240
v 12.634657 1.570707 3.451668
v 12.693869 0.399724 3.451668
v 5.577065 2.916100 3.451668
v 5.819737 2.916100 3.451668
v 12.693869 1.570707 3.197240
v 12.693869 0.399724 3.197240
v 12.646658 2.298615 -0.989381
v 12.728580 1.570707 -0.989381
v 12.728580 2.298615 -0.747276
v 12.728580 1.570707 -0.747276
v 12.343182 2.822466 -1.318357
v 12.555064 2.822466 -1.265498
v 12.555064 1.570707 -1.105146
v 12.555064 0.399724 -0.994818
v 12.555064 2.298615 -1.265498
v 12.343182 2.298615 -1.318357
v 12.343182 1.570707 -1.105146
v 12.343182 0.399724 -1.105146
v 5.577065 2.298615 -1.276327
v 5.577065 1.570707 -1.276327
v 5.819737 2.298615 -1.204563
v 5.819737 1.570707 -1.226464
v 5.186773 2.822466 -0.747276
v 5.271660 2.822466 -0.989381
v 5.403103 1.570707 -0.989381
v 5.403103 0.399724 -0.989381
v 5.186773 2.298615 -0.989381
v 5.186773 2.298615 -0.747276
v 5.462860 1.570707 -0.747276
v 5.403103 0.399724 -0.747276
v 12.343182 1.931285 -0.747276
v 12.343182 1.931285 3.197240
v 5.819737 1.989359 -0.747276
v 5.819737 1.924442 3.197240
v 5.819737 2.285852 3.197240
v 5.819737 2.285852 -0.747276
v 12.343182 2.285852 -0.747276
v 12.343182 2.285852 3.197240
v 5.819737 2.916100 -0.747276
v 5.577065 2.916100 -0.747276
v 5.819737 2.916100 3.828570
v 5.577065 2.916100 3.769948
v 12.343182 2.871151 -0.989381
v 12.555064 2.871151 -0.989381
v 12.555064 2.871151 3.197240
v 12.555064 2.871151 3.415882
v 12.343182 2.871151 3.451668
v 12.343182 2.871151 3.197240
v 12.555064 2.871151 -0.747276
v 12.343182 2.871151 -0.747276
v 12.343182 2.871151 -1.318357
v 12.555064 2.871151 -1.265498
v 12.343182 1.713929 0.041627
v 12.343182 1.583280 0.830530
v 12.343182 1.713929 1.619434
v 12.343182 1.713929 2.408337
v 5.819737 1.713929 0.041627
v 5.819737 1.771464 0.830530
v 5.819737 1.860011 1.619434
v 5.819737 1.713929 2.408337
v 7.124426 1.850078 3.197240
v 8.429114 2.032626 3.197240
v 9.733804 1.713929 3.197240
v 11.038492 1.713929 3.197240
v 7.124426 1.713929 -0.747276
v 8.429114 1.818996 -0.747276
v 9.733804 1.713929 -0.747276
v 11.038492 1.713929 -0.747276
v 11.038492 2.042057 0.041627
v 11.038492 1.713929 0.830530
v 11.038492 1.713929 1.619434
v 11.038492 1.713929 2.408337
v 9.733804 1.713929 0.041627
v 9.733804 1.818996 0.830530
v 9.733804 2.042542 1.619434
v 9.733804 1.818996 2.408337
v 8.429114 1.713929 0.041627
v 8.429114 1.818996 0.830530
v 8.429114 1.626672 1.619434
v 8.429114 1.713929 2.408337
v 7.124426 1.713929 0.041627
v 7.124426 2.086420 0.830530
v 7.124426 1.713929 1.619434
v 7.124426 1.818996 2.408337
v 8.806581 1.642405 3.451668
v 12.343182 1.570707 3.425255
v 5.819737 1.570707 3.425255
v 8.806581 1.642405 3.425255
v 5.577065 2.352610 0.929342
v 5.577065 1.570707 1.592621
v 5.577065 1.516236 2.016455
v 5.610994 2.298615 3.197240
v 5.610994 1.570707 3.197240
v 5.610994 2.298615 -0.747276
v 5.610994 2.352610 0.929342
v 5.610994 1.570707 1.592621
v 5.610994 1.516236 2.016455
v 9.888407 1.570707 -0.989381
v 10.412095 1.643735 -0.989381
v 8.727795 2.274694 -0.989381
v 12.343182 2.298615 -0.959956
v 12.343182 1.570707 -0.959956
v 5.819737 2.298615 -0.959956
v 9.888407 1.570707 -0.959956
v 10.412095 1.643735 -0.959956
v 8.727795 2.274694 -0.959956
v 12.555064 2.348880 1.780572
v 12.555064 1.651086 0.751117
v 12.522703 2.298615 -0.747276
v 12.522703 2.298615 3.197240
v 12.522703 1.570707 -0.747276
v 12.522703 1.570707 3.197240
v 12.522703 2.348880 1.780572
v 12.522703 1.651086 0.751117
vt 0.570944 0.250000
vt 0.570944 0.236371
vt 0.570944 0.236371
vt 0.570944 0.250000
vt 0.625000 0.000000
vt 0.625000 0.000000
vt 0.625000 0.000000
vt 0.625000 0.000000
vt 0.570944 0.000000
vt 0.570944 0.000000
vt 0.625000 0.014322
vt 0.625000 0.014322
vt 0.495832 0.991306
vt 0.570944 0.991306
vt 0.570944 1.000000
vt 0.495832 1.000000
vt 0.495832 0.735677
vt 0.570944 0.735677
vt 0.570944 0.750000
vt 0.495832 0.750000
vt 0.495832 0.492409
vt 0.570944 0.492409
vt 0.570944 0.500000
vt 0.495832 0.500000
vt 0.495832 0.236371
vt 0.495832 0.250000
vt 0.625000 0.236371
vt 0.625000 0.236371
vt 0.625000 0.492409
vt 0.625000 0.492409
vt 0.570944 0.492409
vt 0.375000 0.735677
vt 0.495832 0.735677
vt 0.375000 0.735677
vt 0.375000 0.991306
vt 0.495832 0.991306
vt 0.375000 0.991306
vt 0.375000 0.750000
vt 0.495832 0.757591
vt 0.375000 0.757591
vt 0.495832 0.404462
vt 0.375000 0.492409
vt 0.568476 0.362881
vt 0.503368 0.423224
vt 0.570944 0.757591
vt 0.570944 0.757591
vt 0.570944 0.750000
vt 0.632591 0.735677
vt 0.625000 0.757591
vt 0.625000 0.757591
vt 0.632591 0.735677
vt 0.625000 0.750000
vt 0.570944 0.258694
vt 0.625000 0.258694
vt 0.625000 0.250000
vt 0.495832 0.258694
vt 0.495832 0.258694
vt 0.570944 0.258694
vt 0.375000 0.250000
vt 0.375000 0.258694
vt 0.503231 0.884296
vt 0.503231 0.884296
vt 0.495832 0.757591
vt 0.632591 0.735677
vt 0.866306 0.735677
vt 0.866306 0.735677
vt 0.625000 0.991306
vt 0.866306 0.691268
vt 0.866306 0.646858
vt 0.625000 0.500000
vt 0.625000 0.500000
vt 0.625000 0.500000
vt 0.625000 0.500000
vt 0.375000 0.513629
vt 0.495832 0.513629
vt 0.375000 0.000000
vt 0.495832 0.000000
vt 0.495832 0.014322
vt 0.375000 0.014322
vt 0.570944 1.000000
vt 0.495832 1.000000
vt 0.504127 0.597978
vt 0.866306 0.513629
vt 0.875000 0.513629
vt 0.875000 0.513629
vt 0.866306 0.513629
vt 0.625000 0.735677
vt 0.576131 0.655929
vt 0.570944 0.014322
vt 0.625000 0.513629
vt 0.570944 0.513629
vt 0.866306 0.500000
vt 0.875000 0.500000
vt 0.570944 0.500000
vt 0.495832 0.500000
vt 0.375000 0.500000
vt 0.625000 0.492409
vt 0.625000 0.492409
vt 0.632591 0.500000
vt 0.632591 0.513629
vt 0.495832 0.104651
vt 0.375000 0.236371
vt 0.495832 0.104651
vt 0.495832 0.014322
vt 0.570944 0.991306
vt 0.625000 0.991306
vt 0.625000 1.000000
vt 0.570944 1.000000
vt 0.495832 1.000000
vt 0.375000 1.000000
vt 0.375000 0.000000
vt 0.495832 0.000000
vt 0.625000 0.991306
vt 0.625000 1.000000
vt 0.495832 0.000000
vt 0.570944 0.000000
vt 0.570944 0.014322
vt 0.495832 0.014322
vt 0.495832 0.750000
vt 0.495832 0.757591
vt 0.866306 0.750000
vt 0.875000 0.750000
vt 0.875000 0.750000
vt 0.866306 0.750000
vt 0.495832 0.750000
vt 0.375000 0.750000
vt 0.875000 0.735677
vt 0.866306 0.735677
vt 0.570944 0.513629
vt 0.495832 0.513629
vt 0.570944 0.500000
vt 0.375000 0.492409
vt 0.495832 0.492409
vt 0.495832 0.500000
vt 0.375000 0.500000
vt 0.625000 0.513629
vt 0.625000 0.735677
vt 0.495832 0.250000
vt 0.570944 0.250000
vt 0.625000 0.250000
vt 0.375000 0.236371
vt 0.495832 0.236371
vt 0.495832 0.250000
vt 0.375000 0.250000
vt 0.875000 0.500000
vt 0.875000 0.513629
vt 0.866306 0.513629
vt 0.819563 0.513629
vt 0.772820 0.513629
vt 0.772820 0.735677
vt 0.819563 0.735677
vt 0.632591 0.646858
vt 0.632591 0.691268
vt 0.632591 0.513629
vt 0.625000 0.236371
vt 0.625000 0.991306
vt 0.632591 0.750000
vt 0.625000 0.750000
vt 0.632591 0.513629
vt 0.632591 0.500000
vt 0.632591 0.500000
vt 0.495832 0.991306
vt 0.570944 0.014322
vt 0.576516 0.141989
vt 0.570944 0.236371
vt 0.576516 0.141989
vt 0.490212 0.080792
vt 0.490212 0.080792
vt 0.495832 0.404462
vt 0.503368 0.423224
vt 0.495832 0.492409
vt 0.570944 0.258694
vt 0.568476 0.362881
vt 0.570944 0.492409
vt 0.576131 0.655929
vt 0.570944 0.735677
vt 0.570944 0.513629
vt 0.495832 0.735677
vt 0.504127 0.597978
vt 0.495832 0.513629
vt 0.866306 0.513629
vt 0.866306 0.558039
vt 0.866306 0.602448
vt 0.866306 0.735677
vt 0.632591 0.513629
vt 0.679334 0.513629
vt 0.726077 0.513629
vt 0.632591 0.735677
vt 0.679334 0.735677
vt 0.726077 0.735677
vt 0.632591 0.558039
vt 0.632591 0.602448
vt 0.819563 0.691268
vt 0.679334 0.691268
vt 0.726077 0.691268
vt 0.772820 0.691268
vt 0.679334 0.558039
vt 0.679334 0.602448
vt 0.679334 0.646858
vt 0.726077 0.558039
vt 0.726077 0.602448
vt 0.726077 0.646858
vt 0.772820 0.558039
vt 0.772820 0.602448
vt 0.772820 0.646858
vt 0.819563 0.558039
vt 0.819563 0.602448
vt 0.819563 0.646858
vn 0.0000 -1.0000 0.0000
vn -1.0000 0.0000 0.0000
vn 0.0000 0.0000 1.0000
vn 1.0000 0.0000 0.0000
vn 0.0000 0.0000 -1.0000
vn 0.0000 1.0000 0.0000
vn 0.0841 0.0340 0.9959
vn -0.0203 -0.9998 0.0000
vn 0.0264 0.9997 0.0000
vn -0.1197 0.0555 0.9913
vn -0.1199 0.0248 0.9925
vn -0.2348 0.0000 0.9720
vn -0.9928 0.0397 -0.1134
vn -0.1162 0.0338 0.9926
vn 0.9930 0.0251 0.1155
vn 0.9845 0.0554 -0.1666
vn 0.2421 0.0000 -0.9703
vn 0.2517 -0.0455 -0.9667
vn 0.2431 0.0146 -0.9699
vn -0.9819 0.0796 -0.1721
vn -0.9922 0.0253 0.1224
vn 0.0000 0.9987 -0.0501
vn 0.1665 0.0000 0.9860
vn 0.0240 -0.9997 0.0000
vn 0.0000 0.9918 0.1275
vn 0.0000 -0.9995 0.0322
vn 0.0000 0.9989 -0.0461
vn 0.0000 -0.9997 -0.0238
vn 0.1381 -0.9904 0.0000
vn 0.0082 1.0000 0.0000
vn -0.0066 1.0000 0.0000
vn -0.0378 -0.9993 0.0000
vn 0.0000 -0.9998 0.0199
vn 0.0000 -0.9995 -0.0328
vn 0.0000 -0.9986 0.0536
vn 0.0000 -0.9994 -0.0355
vn 0.0119 0.9931 -0.1164
vn 0.6581 0.7514 -0.0473
vn 0.6003 0.5091 -0.6168
vn -0.0136 0.6595 -0.7516
vn -0.6923 0.7199 -0.0493
vn 0.0303 0.9994 0.0174
vn -0.0151 0.7106 -0.7035
vn -0.6242 0.4789 -0.6173
vn 0.0220 0.9989 0.0402
vn 0.0435 0.7160 -0.6967
vn -0.0183 0.9951 -0.0968
vn 0.0151 0.5884 -0.8084
vn -0.6229 0.5341 0.5716
vn -0.0323 0.7642 0.6442
vn 0.0006 0.9993 0.0366
vn -0.6642 0.7430 0.0830
vn 0.0764 0.9958 0.0504
vn -0.6324 0.7708 0.0766
vn 0.0944 0.9953 -0.0208
vn -0.7171 0.6964 -0.0288
vn -0.0306 0.7352 0.6771
vn -0.0419 0.9986 -0.0333
vn -0.0194 0.9991 -0.0388
vn -0.0061 0.9998 0.0165
vn -0.0000 0.6633 0.7483
vn 0.0247 0.9970 -0.0728
vn 0.0186 0.9995 -0.0256
vn -0.0374 0.9967 0.0719
vn 0.0222 0.6933 0.7203
vn 0.0116 0.9967 -0.0800
vn 0.0124 0.9999 -0.0099
vn 0.0400 0.9935 0.1063
vn 0.6344 0.4530 0.6264
vn 0.6650 0.7460 -0.0347
vn 0.6799 0.7325 -0.0342
vn 0.7355 0.6740 0.0691
usemtl None
s off
f 10/1/1 45/2/1 98/3/1 97/4/1
f 2/5/2 54/6/2 112/7/2 73/8/2
f 2/5/2 9/9/2 53/10/2 54/6/2
f 34/11/2 2/5/2 73/8/2 69/12/2
f 28/13/3 27/14/3 9/15/3 16/16/3
f 40/17/4 37/18/4 12/19/4 15/20/4
f 23/21/5 22/22/5 11/23/5 14/24/5
f 46/25/2 45/2/2 10/1/2 13/26/2
f 45/2/3 43/27/3 93/28/3 98/3/3
f 22/22/2 18/29/2 81/30/2 86/31/2
f 35/32/5 40/17/5 75/33/5 76/34/5
f 30/35/4 28/13/4 59/36/4 60/37/4
f 5/38/3 15/20/3 24/39/3 19/40/3
f 168/41/5 23/21/5 17/42/5
f 170/43/5 169/44/5 168/41/5
f 12/19/6 21/45/6 67/46/6 65/47/6
f 41/48/2 20/49/2 117/50/2 118/51/2
f 12/19/7 6/52/7 20/49/7 21/45/7
f 31/53/5 29/54/5 18/29/5 22/22/5
f 10/1/5 4/55/5 29/54/5 31/53/5
f 31/53/4 32/56/4 92/57/4 91/58/4
f 3/59/5 13/26/5 32/56/5 25/60/5
f 19/40/3 24/39/3 28/13/3 30/35/3
f 24/39/8 155/61/8 158/62/8 156/63/8
f 41/48/2 108/64/2 21/45/2 20/49/2
f 27/14/4 105/65/4 42/66/4 26/67/4
f 105/65/4 130/68/4 129/69/4
f 8/70/4 82/71/4 122/72/4 114/73/4
f 44/74/4 50/75/4 40/17/4 35/32/4
f 1/76/2 16/77/2 39/78/2 33/79/2
f 16/16/3 9/15/3 62/80/3 61/81/3
f 37/18/4 40/17/4 178/82/4
f 52/83/5 43/84/5 110/85/5 109/86/5
f 36/87/4 37/18/4 177/88/4
f 9/9/2 2/5/2 34/11/2 38/89/2
f 11/23/4 8/70/4 48/90/4 49/91/4
f 29/92/6 4/93/6 43/84/6 52/83/6
f 14/24/5 11/23/5 77/94/5 78/95/5
f 7/96/4 14/24/4 50/75/4 44/74/4
f 81/30/2 18/29/2 113/97/2 121/98/2
f 18/99/9 29/92/9 52/83/9 51/100/9
f 160/101/2 46/25/2 47/102/2
f 45/2/2 46/25/2 160/101/2
f 39/78/1 160/101/1 166/103/1 163/104/1
f 56/105/10 55/106/10 54/107/10 53/108/10
f 60/37/11 59/36/11 58/109/11 57/110/11
f 16/77/2 1/76/2 57/111/2 58/112/2
f 27/14/4 26/67/4 55/106/4 56/105/4
f 54/107/12 55/106/12 111/113/12 112/114/12
f 28/13/6 16/16/6 58/109/6 59/36/6
f 9/15/1 27/14/1 56/105/1 53/108/1
f 61/115/13 62/116/13 63/117/13 64/118/13
f 38/89/5 39/78/5 64/118/5 63/117/5
f 9/9/6 38/89/6 63/117/6 62/116/6
f 39/78/1 16/77/1 61/115/1 64/118/1
f 66/119/14 65/47/14 67/46/14 68/120/14
f 21/45/2 24/39/2 68/120/2 67/46/2
f 24/39/1 15/20/1 66/119/1 68/120/1
f 15/20/4 12/19/4 65/47/4 66/119/4
f 74/121/6 73/122/6 112/123/6 111/124/6
f 76/34/15 75/33/15 71/125/15 72/126/15
f 109/86/6 110/85/6 69/127/6 70/128/6
f 40/17/6 15/20/6 71/125/6 75/33/6
f 70/128/6 69/127/6 73/122/6 74/121/6
f 15/20/3 5/38/3 72/126/3 71/125/3
f 6/52/4 12/19/4 37/18/4 36/87/4
f 78/95/16 77/94/16 79/129/16 80/130/16
f 11/23/6 49/91/6 79/129/6 77/94/6
f 49/91/3 50/75/3 80/130/3 79/129/3
f 50/75/1 14/24/1 78/95/1 80/130/1
f 86/31/17 81/30/17 82/71/17 85/131/17
f 88/132/18 87/133/18 83/134/18 84/135/18
f 14/24/4 7/96/4 84/135/4 83/134/4
f 17/42/2 23/21/2 87/133/2 88/132/2
f 11/23/1 22/22/1 86/31/1 85/131/1
f 36/87/4 48/90/4 119/136/4 115/137/4
f 23/21/6 14/24/6 83/134/6 87/133/6
f 8/70/4 11/23/4 85/131/4 82/71/4
f 90/138/19 89/139/19 91/58/19 92/57/19
f 10/1/6 31/53/6 91/58/6 89/139/6
f 13/26/2 10/1/2 89/139/2 90/138/2
f 32/56/1 13/26/1 90/138/1 92/57/1
f 98/3/20 93/28/20 94/140/20 97/4/20
f 100/141/21 99/142/21 95/143/21 96/144/21
f 47/102/3 46/25/3 99/142/3 100/141/3
f 46/25/6 13/26/6 95/143/6 99/142/6
f 43/84/6 4/93/6 94/145/6 93/146/6
f 4/55/5 10/1/5 97/4/5 94/140/5
f 13/26/5 3/59/5 96/144/5 95/143/5
f 106/147/3 135/148/3 136/149/3
f 132/150/5 131/151/5 105/65/5
f 125/152/2 126/153/2 108/64/2
f 41/48/2 51/100/2 107/154/2 108/64/2
f 105/65/22 27/14/22 21/45/22 108/64/22
f 51/100/3 52/83/3 106/147/3 107/154/3
f 52/83/4 42/66/4 105/65/4 106/147/4
f 43/27/2 34/11/2 69/12/2 110/155/2
f 42/66/4 52/83/4 109/86/4 70/128/4
f 26/67/4 42/66/4 70/128/4 74/156/4
f 55/106/4 26/67/4 74/156/4 111/113/4
f 115/137/6 118/51/6 117/157/6 116/158/6
f 119/136/6 120/159/6 118/51/6 115/137/6
f 114/73/6 113/160/6 120/159/6 119/136/6
f 113/160/6 114/73/6 122/72/6 121/161/6
f 51/100/2 41/48/2 118/51/2 120/159/2
f 18/99/2 51/100/2 120/159/2 113/160/2
f 20/49/23 6/52/23 116/158/23 117/50/23
f 48/90/4 8/70/4 114/73/4 119/136/4
f 82/71/17 81/30/17 121/98/17 122/72/17
f 6/52/4 36/87/4 115/137/4 116/158/4
f 156/63/3 158/62/3 157/162/3
f 155/61/3 21/45/3 27/14/3
f 155/61/24 28/13/24 157/162/24 158/62/24
f 28/13/6 24/39/6 156/63/6 157/162/6
f 162/163/2 165/164/2 164/165/2
f 159/166/2 34/11/2 43/27/2
f 160/101/25 161/167/25 167/168/25 166/103/25
f 166/103/2 167/168/2 163/104/2
f 159/166/26 45/2/26 164/165/26 165/164/26
f 45/2/6 38/89/6 162/163/6 164/165/6
f 161/167/27 39/78/27 163/104/27 167/168/27
f 38/89/28 159/166/28 165/164/28 162/163/28
f 39/78/5 38/89/5 162/163/5 163/104/5
f 174/169/5 175/170/5 172/171/5
f 168/41/29 169/44/29 175/170/29 174/169/29
f 170/43/30 31/53/30 173/172/30 176/173/30
f 171/174/5 176/173/5 173/172/5
f 31/53/1 22/22/1 171/174/1 173/172/1
f 23/21/4 22/22/4 171/174/4 172/171/4
f 22/22/31 170/43/31 176/173/31 171/174/31
f 23/21/6 168/41/6 174/169/6 172/171/6
f 169/44/32 23/21/32 172/171/32 175/170/32
f 183/175/4 180/176/4 179/177/4
f 49/91/33 177/88/33 183/175/33 179/177/33
f 178/82/34 40/17/34 182/178/34 184/179/34
f 184/179/4 182/178/4 181/180/4
f 50/75/35 178/82/35 184/179/35 181/180/35
f 37/18/6 49/91/6 179/177/6 180/176/6
f 177/88/36 37/18/36 180/176/36 183/175/36
f 40/17/6 50/75/6 181/180/6 182/178/6
f 17/42/5 25/60/5 168/41/5
f 25/60/5 32/56/5 168/41/5
f 168/41/5 32/56/5 170/43/5
f 32/56/5 31/53/5 170/43/5
f 170/43/5 22/22/5 169/44/5
f 22/22/5 23/21/5 169/44/5
f 103/181/4 106/147/4 127/182/4
f 106/147/4 105/65/4 129/69/4
f 127/182/4 106/147/4 128/183/4
f 105/65/4 104/184/4 130/68/4
f 129/69/4 128/183/4 106/147/4
f 178/82/4 50/75/4 49/91/4
f 49/91/4 37/18/4 178/82/4
f 177/88/4 49/91/4 48/90/4
f 48/90/4 36/87/4 177/88/4
f 47/102/2 33/79/2 160/101/2
f 33/79/2 39/78/2 161/167/2
f 161/167/2 160/101/2 33/79/2
f 160/101/2 39/78/2 38/89/2
f 38/89/2 45/2/2 160/101/2
f 101/185/3 107/154/3 138/186/3
f 107/154/3 106/147/3 136/149/3
f 138/186/3 107/154/3 137/187/3
f 106/147/3 103/181/3 135/148/3
f 136/149/3 137/187/3 107/154/3
f 104/184/5 105/65/5 131/151/5
f 105/65/5 108/64/5 132/150/5
f 108/64/5 102/188/5 134/189/5
f 134/189/5 133/190/5 108/64/5
f 133/190/5 132/150/5 108/64/5
f 102/188/2 108/64/2 126/153/2
f 108/64/2 107/154/2 125/152/2
f 107/154/2 101/185/2 123/191/2
f 123/191/2 124/192/2 107/154/2
f 124/192/2 125/152/2 107/154/2
f 27/14/3 28/13/3 155/61/3
f 155/61/3 24/39/3 21/45/3
f 43/27/2 45/2/2 159/166/2
f 159/166/2 38/89/2 34/11/2
s 1
f 154/193/37 130/68/38 104/184/39 131/151/40
f 126/153/41 142/194/42 134/189/43 102/188/44
f 142/194/42 146/195/45 133/190/46 134/189/43
f 146/195/45 150/196/47 132/150/48 133/190/46
f 150/196/47 154/193/37 131/151/40 132/150/48
f 101/185/49 138/186/50 139/197/51 123/191/52
f 123/191/52 139/197/51 140/198/53 124/192/54
f 124/192/54 140/198/53 141/199/55 125/152/56
f 125/152/56 141/199/55 142/194/42 126/153/41
f 138/186/50 137/187/57 143/200/58 139/197/51
f 139/197/51 143/200/58 144/201/59 140/198/53
f 140/198/53 144/201/59 145/202/60 141/199/55
f 141/199/55 145/202/60 146/195/45 142/194/42
f 137/187/57 136/149/61 147/203/62 143/200/58
f 143/200/58 147/203/62 148/204/63 144/201/59
f 144/201/59 148/204/63 149/205/64 145/202/60
f 145/202/60 149/205/64 150/196/47 146/195/45
f 136/149/61 135/148/65 151/206/66 147/203/62
f 147/203/62 151/206/66 152/207/67 148/204/63
f 148/204/63 152/207/67 153/208/68 149/205/64
f 149/205/64 153/208/68 154/193/37 150/196/47
f 135/148/65 103/181/69 127/182/70 151/206/66
f 151/206/66 127/182/70 128/183/71 152/207/67
f 152/207/67 128/183/71 129/69/72 153/208/68
f 153/208/68 129/69/72 130/68/38 154/193/37
