# Blender v3.1.2 OBJ File: 'untitl1111111111ed (1).blend'
# www.blender.org
mtllib SmallPlank.mtl
o Cube.026_Cube.060
v -3.809622 0.178443 9.781857
v -3.708878 0.178443 8.820665
v 1.050377 0.178443 10.291243
v 1.151122 0.178443 9.330050
v -3.754116 0.178443 9.252275
v -2.711158 0.320762 9.360368
v -3.711811 0.290835 9.270661
v -3.804049 0.320762 9.777084
v -3.809622 0.314270 9.781857
v -3.704416 0.320762 8.826490
v -3.708878 0.314270 8.820665
v 1.045915 0.320762 10.285418
v 1.050377 0.314270 10.291243
v 1.145549 0.320762 9.334824
v 1.151122 0.314270 9.330050
v -3.757568 0.314270 9.285209
v -3.752697 0.320762 9.287136
v -3.753404 0.317941 9.285263
v -3.748355 0.320762 9.245709
v -3.753404 0.314270 9.245480
v -3.749458 0.317945 9.247556
v 1.127944 0.320762 9.502789
v 1.125313 0.320762 9.527889
v -2.477593 0.320762 9.132507
v 1.097972 0.301193 9.508612
v 1.131681 0.178443 9.515535
v 1.102928 0.294701 9.509720
v 1.133157 0.314270 9.501444
v 1.130247 0.314270 9.529214
v -1.967249 0.178443 9.003209
v -1.980074 0.320762 9.025997
v -1.970096 0.320762 9.008267
v -1.967249 0.314270 9.003209
v -1.980074 0.178443 9.025997
v -2.026055 0.178443 9.050632
v -2.026055 0.320762 9.050632
v -2.077084 0.178443 9.045282
v -2.077084 0.320762 9.045282
v -2.116958 0.178443 9.011650
v -2.116958 0.320762 9.011650
v -2.124779 0.178443 8.986698
v -2.123043 0.320762 8.992236
v -2.124779 0.314270 8.986698
vt 0.613596 0.141780
vt 0.613596 0.250000
vt 0.375000 0.250000
vt 0.375000 0.137741
vt 0.375000 0.500000
vt 0.613596 0.500000
vt 0.613596 0.541395
vt 0.375000 0.548243
vt 0.875000 0.623092
vt 0.874947 0.623789
vt 0.864070 0.611945
vt 0.875000 0.615848
vt 0.375000 0.000000
vt 0.613596 0.000000
vt 0.613596 0.126682
vt 0.625000 0.126908
vt 0.625000 0.134152
vt 0.874947 0.608046
vt 0.875000 0.608763
vt 0.625000 0.141237
vt 0.624899 0.126158
vt 0.619300 0.126418
vt 0.625000 0.141966
vt 0.619812 0.141885
vt 0.625000 0.248652
vt 0.625258 0.501378
vt 0.625258 0.534930
vt 0.625000 0.750258
vt 0.625000 0.999742
vt 0.613596 1.000000
vt 0.613596 0.750000
vt 0.625000 0.001350
vt 0.625000 0.126154
vt 0.375000 0.750000
vt 0.375000 1.000000
vt 0.810843 0.546924
vt 0.625258 0.547371
vt 0.625258 0.561817
vt 0.613596 0.547522
vt 0.613596 0.552707
vt 0.625258 0.748622
vt 0.636364 0.849620
vt 0.670808 0.849620
vt 0.680635 0.844437
vt 0.545454 0.736003
vt 0.636364 0.736003
vt 0.454545 0.736003
vt 0.545454 0.849620
vt 0.363636 0.736003
vt 0.454545 0.849620
vt 0.319364 0.736003
vt 0.319364 0.844437
vt 0.375000 0.331487
vt 0.613596 0.331487
vt 0.613596 0.339590
vt 0.375000 0.339590
vt 0.625000 0.499742
vt 0.625000 0.339472
vt 0.625000 0.250258
vt 0.625000 0.331604
vt 0.680635 0.736003
vt 0.363636 0.849620
vt 0.329191 0.849620
vt 0.793396 0.501356
vt 0.874742 0.501345
vt 0.874742 0.748651
vt 0.792989 0.505953
vt 0.790791 0.512986
vt 0.788165 0.512890
vt 0.785528 0.501357
vt 0.785947 0.505870
vn -0.9946 -0.0000 -0.1042
vn 0.9946 0.0000 0.1042
vn 0.0589 0.5420 -0.8383
vn -0.1876 0.2269 -0.9557
vn -0.0902 0.5704 0.8164
vn -0.4983 0.0459 0.8658
vn -0.4890 0.5643 -0.6652
vn -0.7281 0.5517 0.4069
vn -0.7853 0.6136 -0.0823
vn 0.7853 0.6136 0.0823
vn -0.0806 0.6344 0.7688
vn -0.1042 0.0000 0.9946
vn -0.0931 0.4122 0.9063
vn 0.0841 0.6372 -0.7661
vn 0.1600 0.1074 0.9813
vn 0.4697 0.1966 -0.8607
vn 0.2027 0.0989 0.9742
vn 0.5349 0.0902 -0.8401
vn -0.8715 0.0000 -0.4905
vn -0.4722 0.0000 -0.8815
vn 0.1043 0.0000 -0.9945
vn 0.6447 0.0000 -0.7644
vn 0.9542 0.0000 -0.2991
vn 0.0000 1.0000 0.0000
vn 0.1042 0.0000 -0.9946
vn 0.0806 0.6344 -0.7688
vn -0.8715 0.0000 -0.4904
vn 0.9542 -0.0002 -0.2991
usemtl None
s off
f 20/1/1 11/2/1 2/3/1 5/4/1
f 4/5/2 15/6/2 28/7/2 26/8/2
f 18/9/3 17/10/3 6/11/3 7/12/3
f 1/13/1 9/14/1 16/15/1 5/4/1
f 5/4/4 16/15/4 18/16/4 7/17/4
f 7/12/5 6/11/5 19/18/5 21/19/5
f 7/17/6 21/20/6 20/1/6 5/4/6
f 16/15/7 17/21/7 18/22/7
f 19/23/8 20/1/8 21/24/8
f 19/23/9 10/25/9 11/2/9 20/1/9
f 14/26/10 22/27/10 28/7/10 15/6/10
f 12/28/11 8/29/11 9/30/11 13/31/11
f 8/32/9 17/33/9 16/15/9 9/14/9
f 3/34/12 13/31/12 9/30/12 1/35/12
f 22/27/13 24/36/13 25/37/13
f 25/37/14 24/36/14 23/38/14
f 28/7/15 22/27/15 25/37/15 27/39/15
f 27/39/16 25/37/16 23/38/16 29/40/16
f 26/8/17 28/7/17 27/39/17
f 27/39/18 29/40/18 26/8/18
f 26/8/2 29/40/2 13/31/2 3/34/2
f 29/40/10 23/38/10 12/41/10 13/31/10
f 31/42/19 32/43/19 33/44/19
f 35/45/20 31/42/20 34/46/20
f 37/47/21 36/48/21 35/45/21
f 39/49/22 38/50/22 37/47/22
f 39/49/23 41/51/23 43/52/23
f 6/11/24 12/41/24 24/36/24
f 41/53/25 2/3/25 11/2/25 43/54/25
f 33/55/25 15/6/25 4/5/25 30/56/25
f 14/57/26 15/6/26 33/55/26 32/58/26
f 43/54/26 11/2/26 10/59/26 42/60/26
f 30/61/19 34/46/19 33/44/19
f 34/46/27 31/42/27 33/44/27
f 35/45/20 36/48/20 31/42/20
f 37/47/25 38/50/25 36/48/25
f 39/49/22 40/62/22 38/50/22
f 43/52/28 42/63/28 40/62/28
f 40/62/23 39/49/23 43/52/23
f 42/64/24 10/65/24 24/36/24
f 10/65/24 19/18/24 6/11/24
f 24/36/24 10/65/24 6/11/24
f 6/11/24 17/10/24 8/66/24
f 40/67/24 42/64/24 24/36/24
f 38/68/24 40/67/24 24/36/24
f 6/11/24 8/66/24 12/41/24
f 36/69/24 38/68/24 24/36/24
f 14/26/24 32/70/24 22/27/24
f 32/70/24 31/71/24 22/27/24
f 31/71/24 36/69/24 22/27/24
f 24/36/24 22/27/24 36/69/24
f 12/41/24 23/38/24 24/36/24
