# File exported by Houdini 19.0.498 (www.sidefx.com)
# 45 points
# 185 vertices
# 55 primitives
# Bounds: [-4.27962589, 0.178443, 6.67398691] to [2.11196995, 0.320762008, 9.24719524]
g 
v -4.27962589 0.178443 7.82102585
v -4.01252317 0.178443 6.67398691
v 1.84486699 0.178443 9.24719524
v 2.11196995 0.178443 8.10015678
v -4.13246202 0.178443 7.18904877
v -2.81796694 0.320762008 7.49362707
v -4.08116198 0.290834993 7.21835709
v -4.27183104 0.320762008 7.81617498
v -4.27962589 0.31426999 7.82102585
v -4.00767183 0.320762008 6.6817832
v -4.01252317 0.31426999 6.67398691
v 1.84001601 0.320762008 9.23939991
v 1.84486699 0.31426999 9.24719524
v 2.1041739 0.320762008 8.10500717
v 2.11196995 0.31426999 8.10015678
v -4.14161301 0.31426999 7.22835016
v -4.1356802 0.320762008 7.2314949
v -4.13631201 0.31794101 7.22910881
v -4.12416697 0.320762008 7.18205786
v -4.1305728 0.31426999 7.18094015
v -4.12584019 0.317945004 7.18411016
v 2.05749893 0.320762008 8.30544853
v 2.050524 0.320762008 8.33540154
v -2.48723888 0.320762008 7.25662994
v 2.01843596 0.301192999 8.30750847
v 2.060426 0.178443 8.32150459
v 2.02459693 0.29470101 8.30967426
v 2.06434202 0.31426999 8.30468845
v 2.05662489 0.31426999 8.33782768
v -1.28357303 0.178443 8.41469765
v -1.28357303 0.320762008 8.41469765
v -1.22609103 0.178443 8.44718266
v -1.22609103 0.320762008 8.44718266
v -1.195297 0.178443 8.50558662
v -1.195297 0.320762008 8.50558662
v -1.19814205 0.178443 8.53859043
v -1.19757903 0.320762008 8.53205585
v -1.19814205 0.31426999 8.53859043
v -1.41494703 0.178443 8.48810482
v -1.41494703 0.31426999 8.48810482
v -1.41256595 0.320762008 8.48199272
v -1.40291905 0.320762008 8.45723915
v -1.40291905 0.178443 8.45723915
v -1.34949195 0.178443 8.41844654
v -1.34949195 0.320762008 8.41844654
vt 0.977656782 0.100137942 0
vt 0.976137578 0.021024799 0
vt 0.996783495 0.0206277687 0
vt 0.99832654 0.101007275 0
vt 0 0.0437241681 0
vt 0.0206244811 0.043246787 0
vt 0.0213636737 0.0751314163 0
vt 0.000800127746 0.0782321021 0
vt 0.764478505 0.222232968 0
vt 0.76466459 0.221679688 0
vt 0.974566102 0.228060097 0
vt 0.772070587 0.227876544 0
vt 0.992197096 0.195159942 0
vt 0.972313464 0.195623487 0
vt 0.970234036 0.106548153 0
vt 0.989979029 0.100176945 0
vt 0.760742188 0.230128303 0
vt 0.76407671 0.222297698 0
vt 0.764808059 0.234211415 0
vt 0.765396714 0.233646959 0
vt 0.975236297 0 0
vt 0.975714266 0.0206216052 0
vt 0.021023415 0.0428293459 0
vt 0.0205426663 0.0222081672 0
vt 0.765703619 0.233435243 0
vt 0.976260245 0.10010922 0
vt 0.976693988 0.100505829 0
vt 0.974760711 0.0220385622 0
vt 0.0220416766 0.044200372 0
vt 0.0227662083 0.0754468814 0
vt 0.970947206 0.194704577 0
vt 0.968895793 0.106831051 0
vt 0.00377362221 0 0
vt 0.710431755 0.00382314553 0
vt 0.00940933637 0.00341333426 0
vt 0.00377411721 0.00764383143 0
vt 0.0043016742 0.000717040966 0
vt 0.00695833936 0.00357064232 0
vt 0.00445464719 0.00678498717 0
vt 0 0.00381703279 0
vt 0.0224977639 0.0830774233 0
vt 0.0425729901 0.0849001184 0
vt 0.0470034108 0.222339943 0
vt 0.0270089563 0.222984672 0
vt 0.0439197645 0.0847126693 0
vt 0.0483244024 0.221340597 0
vt 0.52441442 0.21467723 0
vt 0.514020264 0.196078315 0
vt 0.523404777 0.19310917 0
vt 0.512844324 0.223763749 0
vt 0.519547403 0.217330366 0
vt 0.50775969 0.227560058 0
vt 0.506907284 0.208208218 0
vt 0.540248811 0.20177573 0
vt 0.541132927 0.205204949 0
vt 0.541335404 0.20646055 0
vt 0.53641814 0.222384527 0
vt 0.533175468 0.195378914 0
vt 0.529433906 0.216721728 0
vt 0.507615149 0.203280061 0
vt 0.507037461 0.206935287 0
vt 0.971928179 0.196026519 0
vt 0.047413975 0.222721532 0
vt 0.0480712019 0.242705777 0
vt 0.97238189 0.215920657 0
vt 0.541573882 0.225723252 0
vt 0.772172332 0.10508731 0
vt 0.73095125 0.0603770241 0
vn -0.89930588 0.106337175 0.424194992
vn -0.932676077 0.288004041 -0.217183888
vn -0.973942518 0 -0.226795197
vn -0.997180402 0.00942492485 -0.0744473413
vn 0.97394228 0 0.226796165
vn 0.932674587 0.288007736 0.217185736
vn 0.894517124 0.395537734 0.208300233
vn 0.991904318 0.0125718806 0.126363546
vn -0.105220966 0.539482594 -0.835396409
vn -0.22584115 0.87778151 -0.422487378
vn 0.000720961369 0.999993086 -0.00362420361
vn 0.074217312 0.494505674 -0.865999877
vn -0.973942518 -0 -0.226794854
vn -0.932687759 0.287962317 -0.217189476
vn -0.891606271 0.366973847 -0.26527071
vn -0.997180402 0.00942492485 -0.0744473413
vn -0.052391272 0.274307132 -0.9602139
vn -0.0525346175 0.274296135 -0.96020931
vn -0.105220966 0.539482594 -0.835396409
vn 0.074217312 0.494505674 -0.865999877
vn -0.354938984 0.450141907 0.819384217
vn -0.17709966 0.646056652 0.742459714
vn -0.390461743 0.879712939 0.271375686
vn -0.54968977 0.48225069 0.682111025
vn 0.22679545 -0 -0.973942339
vn 0.217186615 0.287994474 -0.932678521
vn 0.21718815 0.287972122 -0.932684958
vn 0.22679545 -0 -0.973942339
vn -0.354938984 0.450141907 0.819384217
vn -0.54968977 0.48225069 0.682111025
vn -0.89930588 0.106337175 0.424194992
vn -0.997180402 0.00942492485 -0.0744473413
vn -0.891606271 0.366973847 -0.26527071
vn -0.22584115 0.87778151 -0.422487378
vn -0.105220966 0.539482594 -0.835396409
vn -0.390461743 0.879712939 0.271375686
vn -0.89930588 0.106337175 0.424194992
vn -0.54968977 0.48225069 0.682111025
vn -0.390461743 0.879712939 0.271375686
vn -0.22426267 0.905429304 -0.360422254
vn -0.932676077 0.288004041 -0.217183888
vn -0.688661218 0.70712769 -0.160362348
vn -0.22426267 0.905429304 -0.360422254
vn 0.360426098 0.90541935 -0.224296331
vn 0.21718815 0.287972122 -0.932684958
vn 0.217186615 0.287994474 -0.932678521
vn 0.360426098 0.90541935 -0.224296331
vn 0.340777993 0.936788857 0.0793538988
vn 0.894517124 0.395537734 0.208300233
vn 0.932674587 0.288007736 0.217185736
vn -0.360467076 0.905408561 0.224274233
vn -0.22584115 0.87778151 -0.422487378
vn -0.891606271 0.366973847 -0.26527071
vn -0.932687759 0.287962317 -0.217189476
vn 0.0142595898 0.0764818564 0.996969044
vn -0.000151473258 0.999999702 0.000656363438
vn -0.157726526 0.409439981 0.898599684
vn 0.303656787 0.579774022 -0.756078482
vn 0.16293399 0.70973438 -0.68536824
vn 0.64496547 0.56932193 -0.509796083
vn 0.0940212533 0.0621975809 0.993625402
vn 0.0142595898 0.0764818564 0.996969044
vn -0.157726526 0.409439981 0.898599684
vn 0.0186479017 0.211118892 0.977282465
vn 0.582219005 0.185827225 -0.791510761
vn 0.303656787 0.579774022 -0.756078482
vn 0.64496547 0.56932193 -0.509796083
vn 0.748422086 0.471982807 -0.465936363
vn 0.0647987649 0.120769069 0.990563452
vn 0.0940212533 0.0621975809 0.993625402
vn 0.0186479017 0.211118892 0.977282465
vn 0.582219005 0.185827225 -0.791510761
vn 0.748422086 0.471982807 -0.465936363
vn 0.991904318 0.0125718806 0.126363546
vn 0.991904318 0.0125718806 0.126363546
vn 0.973942518 4.77332776e-07 0.226795018
vn 0.932677746 0.287997693 0.217185944
vn 0.973942459 -0 0.226795062
vn 0.748422086 0.471982807 -0.465936363
vn 0.64496547 0.56932193 -0.509796083
vn 0.224271759 0.905415118 0.360451937
vn 0.932677746 0.287997693 0.217185944
vn -0.226798087 0 0.973941803
vn -0.71734482 -0 0.696718276
vn -0.226798072 0 0.973941863
vn -0.980143428 0 0.198289648
vn -0.71734482 -0 0.696718276
vn -0.71734482 -0 0.696718276
vn -0.980143428 0 0.198289648
vn -0.996305108 -0 -0.0858851448
vn -0.99630475 -1.33189815e-05 -0.085887745
vn 0.791716397 8.32876958e-06 0.610888839
vn 0.931743741 0.000129729175 0.363116562
vn 0.931750596 3.23741515e-05 0.36309877
vn 0.791717291 0 0.610887587
vn 0.335762441 0 0.941946745
vn 0.791716397 8.32876958e-06 0.610888839
vn 0.335762441 0 0.941946745
vn -0.226798072 0 0.973941863
vn 0.335762441 0 0.941946745
vn 0 1 0
vn -0.0800939873 0.935564697 0.343953043
vn 0.224271759 0.905415118 0.360451937
vn -0.360467076 0.905408561 0.224274233
vn -0.217186555 0.287996441 0.932677865
vn -0.20838891 0.394629419 0.894897521
vn -0.0800894052 0.935572445 0.343933225
vn -0.208390743 0.394608617 0.894906282
vn -0.217187881 0.287974089 0.932684481
vn 0.224271759 0.905415118 0.360451937
vn -0.0800939873 0.935564697 0.343953043
vn -0.226795346 -0 0.973942459
vn -0.226795346 -0 0.973942459
vn -0.217187881 0.287974089 0.932684481
vn -0.208390743 0.394608617 0.894906282
vn -0.217186555 0.287996441 0.932677865
vn -0.226795569 -0 0.973942399
vn -0.226795569 -0 0.973942399
vn -0.20838891 0.394629419 0.894897521
vn -0.226798087 0 0.973941803
vn -0.71734482 -0 0.696718276
vn -0.71734482 -0 0.696718276
vn -0.980143428 0 0.198289648
vn -0.980143607 -3.42631483e-06 0.198289037
vn -0.71734482 -0 0.696718276
vn -0.996304154 -5.33679049e-05 -0.0858955681
vn -0.980143607 -3.42631483e-06 0.198289037
vn -0.99630475 -1.33189815e-05 -0.085887745
vn -0.980143607 -3.42631483e-06 0.198289037
vn -0.980143428 0 0.198289648
vn -0.99630475 -1.33189815e-05 -0.085887745
vn 0.93175298 -0 0.36309287
vn 0.791717291 0 0.610887587
vn 0.931750596 3.23741515e-05 0.36309877
vn 0.791717291 0 0.610887587
vn 0.791716397 8.32876958e-06 0.610888839
vn 0.931750596 3.23741515e-05 0.36309877
vn 0.791717291 0 0.610887587
vn 0.335762441 0 0.941946745
vn 0.335762441 0 0.941946745
vn 0.335762441 0 0.941946745
vn -0.226798087 0 0.973941803
vn -0.226798072 0 0.973941863
vn -0.22426267 0.905429304 -0.360422254
vn -0.390461743 0.879712939 0.271375686
vn 0.000720961369 0.999993086 -0.00362420361
vn 0.000720961369 0.999993086 -0.00362420361
vn -0.22584115 0.87778151 -0.422487378
vn -0.360467076 0.905408561 0.224274233
vn -0.360467076 0.905408561 0.224274233
vn -0.0800894052 0.935572445 0.343933225
vn 0.000720961369 0.999993086 -0.00362420361
vn -0.0800894052 0.935572445 0.343933225
vn 0 1 0
vn 0.000720961369 0.999993086 -0.00362420361
vn 0 1 0
vn 0 1 0
vn -0.000151473258 0.999999702 0.000656363438
vn 0.000720961369 0.999993086 -0.00362420361
vn 0 1 0
vn -0.000151473258 0.999999702 0.000656363438
vn 0 1 0
vn 0 1 0
vn -0.000151473258 0.999999702 0.000656363438
vn 0.340777993 0.936788857 0.0793538988
vn 0.360426098 0.90541935 -0.224296331
vn -0.000151473258 0.999999702 0.000656363438
vn 0.360426098 0.90541935 -0.224296331
vn -0.22426267 0.905429304 -0.360422254
vn -0.000151473258 0.999999702 0.000656363438
vn 0.224271759 0.905415118 0.360451937
vn 0 1 0
vn 0 1 0
vn 0 1 0
vn -0.000151473258 0.999999702 0.000656363438
vn 0 1 0
vn 0 1 0
vn 0 1 0
vn 0 1 0
vn -0.22426267 0.905429304 -0.360422254
vn 0.000720961369 0.999993086 -0.00362420361
vn -0.000151473258 0.999999702 0.000656363438
vn 0 1 0
vn 0 1 0
vn 0 1 0
g 
usemtl /mat/None
f 20/1/1 11/2/2 2/3/3 5/4/4
f 4/5/5 15/6/6 28/7/7 26/8/8
f 18/9/9 17/10/10 6/11/11 7/12/12
f 1/13/13 9/14/14 16/15/15 5/16/16
f 5/17/17 16/18/18 18/9/19 7/12/20
f 7/12/21 6/11/22 19/19/23 21/20/24
f 2/21/25 11/22/26 15/23/27 4/24/28
f 7/12/29 21/20/30 20/25/31 5/17/32
f 16/18/33 17/10/34 18/9/35
f 19/26/36 20/1/37 21/27/38
f 19/26/39 10/28/40 11/2/41 20/1/42
f 10/28/43 14/29/44 15/23/45 11/22/46
f 14/29/47 22/30/48 28/7/49 15/6/50
f 8/31/51 17/32/52 16/15/53 9/14/54
f 22/33/55 24/34/56 25/35/57
f 25/35/58 24/34/59 23/36/60
f 28/37/61 22/33/62 25/35/63 27/38/64
f 27/38/65 25/35/66 23/36/67 29/39/68
f 26/40/69 28/37/70 27/38/71
f 27/38/72 29/39/73 26/40/74
f 26/41/75 29/42/76 13/43/77 3/44/78
f 29/42/79 23/45/80 12/46/81 13/43/82
f 30/47/83 33/48/84 31/49/85
f 34/50/86 33/48/87 32/51/88
f 34/50/89 36/52/90 38/53/91
f 42/54/92 41/55/93 40/56/94
f 43/57/95 45/58/96 42/54/97
f 44/59/98 31/49/99 45/58/100
f 35/60/101 37/61/102 12/46/103
f 8/31/104 9/62/105 40/56/106 41/55/107
f 38/53/108 13/63/109 12/46/110 37/61/111
f 36/52/112 3/64/113 13/63/114 38/53/115
f 9/62/116 1/65/117 39/66/118 40/56/119
f 30/47/120 32/51/121 33/48/122
f 34/50/123 35/60/124 33/48/125
f 37/61/126 35/60/127 38/53/128
f 35/60/129 34/50/130 38/53/131
f 39/66/132 43/57/133 40/56/134
f 43/57/135 42/54/136 40/56/137
f 43/57/138 44/59/139 45/58/140
f 44/59/141 30/47/142 31/49/143
f 10/28/144 19/26/145 6/67/146
f 6/67/147 17/32/148 8/31/149
f 8/31/150 41/55/151 6/67/152
f 41/55/153 42/54/154 6/67/155
f 42/54/156 45/58/157 24/68/158
f 6/67/159 42/54/160 24/68/161
f 45/58/162 31/49/163 24/68/164
f 22/30/165 14/29/166 24/68/167
f 14/29/168 10/28/169 24/68/170
f 12/46/171 23/45/172 35/60/173
f 23/45/174 24/68/175 31/49/176
f 33/48/177 23/45/178 31/49/179
f 10/28/180 6/67/181 24/68/182
f 23/45/183 33/48/184 35/60/185
