# File exported by Houdini 19.0.498 (www.sidefx.com)
# 94 points
# 352 vertices
# 93 primitives
# Bounds: [0.571269989, 0.369578987, -2.17986608] to [4.8454051, 1.37704003, 4.57293987]
g 
v 4.63049316 0.369578987 -2.06219792
v 4.63049316 1.11609006 -2.06219792
v 4.60626602 0.369578987 4.40822887
v 4.60626602 1.11609006 4.40822887
v 0.678780019 0.369578987 -2.07699394
v 0.678780019 1.02549303 -2.07699394
v 0.641937971 0.369578987 4.39338589
v 0.641937971 1.11609006 4.39338589
v 4.62982416 0.369578987 -1.88371396
v 4.62982416 1.11609006 -1.88371396
v 0.67811197 0.369578987 -1.89850998
v 0.67811197 1.02549303 -1.89850998
v 4.60694695 1.11609006 4.22641277
v 0.642619014 0.369578987 4.21156979
v 4.60694695 0.369578987 4.22641277
v 0.642619014 1.11609006 4.21156979
v 4.303895 0.369578987 4.40709686
v 4.303895 1.11609006 4.40709686
v 4.32812119 0.369578987 -2.06333089
v 4.32812119 1.19635403 -2.06333089
v 4.32745218 1.162588 -1.88484597
v 4.30457497 1.11609006 4.22528076
v 0.800952971 1.04828203 4.39398098
v 0.825178981 0.369578987 -2.07644606
v 0.824509978 1.00801897 -1.89796102
v 0.801633 1.00861001 4.21216488
v 0.800952971 0.369578987 4.39398098
v 0.825178981 1.02549303 -2.07644606
v 4.32812119 1.33175504 -2.06333089
v 4.63049316 1.33175504 -2.06219792
v 4.62982416 1.33175504 -1.88371396
v 4.60694695 1.37704003 4.22641277
v 4.32745218 1.33175504 -1.88484597
v 4.30457497 1.33175504 4.22528076
v 0.800952971 1.29550898 4.39398098
v 0.641937971 1.29550898 4.39338589
v 0.642619014 1.29550898 4.21156979
v 0.665495992 1.34865201 -1.89855695
v 0.824509978 1.29550898 -1.89796102
v 0.801633 1.29550898 4.21216488
v 0.800282001 1.11609006 4.57293987
v 0.641268015 1.11609006 4.57234383
v 0.641268015 0.369578987 4.57234383
v 0.800282001 0.369578987 4.57293987
v 0.800282001 1.29550898 4.57293987
v 0.641268015 1.29550898 4.57234383
v 4.63082123 0.369578987 -2.1499579
v 4.63089991 1.11609006 -2.17118692
v 4.32844877 1.11609006 -2.15108991
v 4.32844877 0.369578987 -2.15108991
v 4.63093281 1.33175504 -2.17986608
v 4.32844877 1.33175504 -2.15108991
v 4.30457497 1.03595698 4.22528076
v 4.32745218 1.07907104 -1.88484597
v 4.30915117 1.02792501 3.00325489
v 4.31372595 0.932097018 1.78122997
v 4.3183012 0.932097018 0.559204996
v 4.32287693 0.932097018 -0.662820995
v 3.62686396 0.932097018 -1.88746905
v 2.92627597 0.932097018 -1.89009202
v 2.22568703 1.03131402 -1.89271498
v 1.52509904 0.932097018 -1.89533901
v 3.60398698 0.932097018 4.22265816
v 2.90339899 0.932097018 4.22003508
v 2.20281005 0.932097018 4.21741199
v 1.50222099 0.932097018 4.21478796
v 0.806209028 0.932097018 2.99013996
v 0.810783982 0.932097018 1.76811504
v 0.81536001 0.987087011 0.546088994
v 0.819935024 0.932097018 -0.675935984
v 1.50679696 0.932097018 2.99276304
v 1.51137197 1.11399901 1.77073801
v 1.51594806 0.932097018 0.548712015
v 1.52052295 1.11399901 -0.673313022
v 2.20738506 0.932097018 2.99538589
v 2.21196103 0.932097018 1.77336097
v 2.21653605 0.932097018 0.55133599
v 2.22111201 0.932097018 -0.67069
v 2.907974 1.11399901 2.99800897
v 2.91254902 0.932097018 1.77598405
v 2.91712499 1.11399901 0.553959012
v 2.9217 0.932097018 -0.668066978
v 3.60856199 0.932097018 3.000633
v 3.61313701 0.932097018 1.77860701
v 3.61771297 0.932097018 0.556581974
v 3.62228894 1.11399901 -0.665444016
v 0.571269989 1.02549303 -1.89891005
v 0.571937978 1.02549303 -2.07739401
v 0.571937978 0.369578987 -2.07739401
v 0.571269989 0.369578987 -1.89891005
v 4.8454051 1.11609006 4.22730589
v 4.84472513 1.11609006 4.40912199
v 4.84472513 0.369578987 4.40912199
v 4.8454051 0.369578987 4.22730589
vt 0.924032032 0.945966899 0
vt 0.923905492 0.923844218 0
vt 0.952846944 0.923580945 0
vt 0.953047156 0.945704043 0
vt 0.443896085 0.936132014 0
vt 0.44732517 0.856900573 0
vt 0.460217565 0.857463241 0
vt 0.456763268 0.936610222 0
vt 0.964811146 0.874008894 0
vt 0.958374321 0.774276912 0
vt 0.969585538 0.783275664 0
vt 0.975397348 0.873325467 0
vt 0.153491303 0.499985874 0
vt 0.117911972 0.508746445 0
vt 0.110351562 0.47804141 0
vt 0.147242904 0.474609375 0
vt 0.931913853 0.696636438 0
vt 0.953493953 0.69538784 0
vt 0.955009758 0.721426427 0
vt 0.933401108 0.722733259 0
vt 0.930232823 0.424214303 0
vt 0.935092509 0.514553189 0
vt 0.19504489 0.54332 0
vt 0.190780178 0.463941365 0
vt 0.948363125 0.605094254 0
vt 0.926775396 0.606318057 0
vt 0.952223182 0.423036247 0
vt 0.957082808 0.513336003 0
vt 0.887296438 0.924110711 0
vt 0.887143731 0.946138322 0
vt 0.192635179 0.738671422 0
vt 0.1875 0.648350358 0
vt 0.462823063 0.920592189 0
vt 0.462516218 0.943138421 0
vt 0.426234931 0.957290292 0
vt 0.341861278 0.970573664 0
vt 0.256464988 0.962653935 0
vt 0.00124754384 0.959037066 0
vt 0.0009765625 0.937021554 0
vt 0.426108927 0.935552537 0
vt 0.429655939 0.856123149 0
vt 0.00551005779 0.836914062 0
vt 0.923007131 0.833297729 0
vt 0.886325657 0.833671153 0
vt 0.443590462 0.957387865 0
vt 0.961319149 0.584010839 0
vt 0.939700305 0.590203941 0
vt 0.937487304 0.555506587 0
vt 0.959451675 0.554183602 0
vt 0.936262488 0.536270678 0
vt 0.197149575 0.582458138 0
vt 0.461914062 0.838362098 0
vt 0.935766637 0.759301782 0
vt 0.957318366 0.757932365 0
vt 0.196848303 0.807217419 0
vt 0.194430366 0.770244181 0
vt 0.967906535 0.757260621 0
vt 0.937092543 0.779758811 0
vt 0.198539495 0.833298326 0
vt 0.198472708 0.602734625 0
vt 0.958296537 0.534997463 0
vt 0.981025219 0.552882612 0
vt 0.982371211 0.574498713 0
vt 0.143242851 0.513833761 0
vt 0.138578728 0.531080902 0
vt 0.099609375 0.52692306 0
vt 0.108771726 0.508789062 0
vt 0.200694785 0.63750571 0
vt 0.951072276 0.828839898 0
vt 0.860609353 0.828839898 0
vt 0.860609353 0.809570312 0
vt 0.951072276 0.809570312 0
vt 0.838867188 0.828839898 0
vt 0.838867188 0.809570312 0
vt 0.966410816 0.665779948 0
vt 0.987971723 0.664437294 0
vt 0.978709877 0.512154102 0
vt 0.979888141 0.533758819 0
vt 0.973865569 0.421875 0
vt 0.124460645 0.475203037 0
vt 0.0339977555 0.475276172 0
vt 0.0339680649 0.438544065 0
vt 0.124467567 0.438560963 0
vt 0.00786328595 0.475297302 0
vt 0.0078125 0.438476562 0
vt 0.969214559 0.720564961 0
vt 0.958977342 0.604492188 0
vt 0.96666652 0.69463253 0
vt 0.801475465 0.965213358 0
vt 0.716648221 0.962010682 0
vt 0.496460587 0.621145427 0
vt 0.349083662 0.637242317 0
vt 0.347014487 0.83437717 0
vt 0.177850321 0.464636028 0
vt 0.18211478 0.544014454 0
vt 0.160514697 0.545174956 0
vt 0.15625 0.465796679 0
vt 0.456222057 0.957711816 0
vt 0.0972988829 0.498595268 0
vt 0.00683596311 0.498595297 0
vt 0.0068359375 0.4765625 0
vt 0.0972988531 0.4765625 0
vt 0.0963223279 0.528896809 0
vt 0.00585940247 0.528896809 0
vt 0.005859375 0.5 0
vt 0.096322298 0.5 0
vt 0.951939166 0.833007812 0
vt 0.00173527957 0.96914798 0
vt 0.0874106586 0.982849419 0
vt 0.172227442 0.978757501 0
vt 0.631820917 0.958807945 0
vt 0.546993673 0.955605268 0
vt 0.886777401 0.955840766 0
vt 0.792489886 0.608904004 0
vt 0.644687891 0.618350089 0
vt 0.937747419 0.789858639 0
vt 0.791116476 0.8172158 0
vt 0.643332958 0.826799214 0
vt 0.49554953 0.836382449 0
vt 0.199168012 0.842989087 0
vt 0.59754169 0.0878560022 0
vt 0.595444798 0 0
vt 0.745377779 0.00175040506 0
vt 0.747547567 0.0889289305 0
vt 0.604212224 0.434135556 0
vt 0.60268259 0.346880972 0
vt 0.751676798 0.346580029 0
vt 0.753272772 0.432362765 0
vt 0.600620329 0.260000408 0
vt 0.749278128 0.260449737 0
vt 0.600066781 0.175368935 0
vt 0.748357236 0.174269915 0
vt 0.0088555105 0.43714118 0
vt 0.00787550118 0.351403385 0
vt 0.156490937 0.349731684 0
vt 0.157807082 0.434922129 0
vt 0.304921865 0.348362118 0
vt 0.306456178 0.435331941 0
vt 0.45357728 0.347082466 0
vt 0.455302447 0.432669997 0
vt 0.00694155414 0.266174078 0
vt 0.155109078 0.264811248 0
vt 0.303314477 0.261359245 0
vt 0.452281266 0.26163134 0
vt 0.00472663902 0.180988386 0
vt 0.152890682 0.178308532 0
vt 0.301463336 0.175883964 0
vt 0.451198012 0.174006894 0
vt 0.00226060557 0.0957914144 0
vt 0.150541365 0.0917220116 0
vt 0.299242169 0.090237543 0
vt 0.447948068 0.0867654905 0
vt 0 0.00964711048 0
vt 0.1486426 0.00589444721 0
vt 0.297819257 0.00476706028 0
vt 0.446594328 0.0016799994 0
vn 0 1 -0
vn 0 1 -0
vn 0 1 -0
vn 0 1 -0
vn 0.0037 0 -1
vn 0.0037 0 -1
vn 0.0037 0 -1
vn 0.0037 0 -1
vn -1 0 -0.0037
vn -1 0 -0.0037
vn -1 0 -0.0037
vn -1 0 -0.0037
vn -0.0037 0 1
vn -0.0037 0 1
vn -0.0037 0 1
vn -0.0037 0 1
vn 1 0 0.0037
vn 1 0 0.0037
vn 1 0 0.0037
vn 1 0 0.0037
vn -1 0 -0.00579999993
vn -1 0 -0.00579999993
vn -1 0 -0.00579999993
vn -1 0 -0.00579999993
vn 1 0 0.0037
vn 1 0 0.0037
vn 1 0 0.0037
vn 1 0 0.0037
vn -1 0 -0.0037
vn -1 0 -0.0037
vn -1 0 -0.0037
vn -1 0 -0.0037
vn 0 1 -0
vn 0 1 -0
vn 0 1 -0
vn 0 1 -0
vn 1 0 0.0037
vn 1 0 0.0037
vn 1 0 0.0037
vn 1 0 0.0037
vn -0.0244999994 0.993799984 -0.108499996
vn -0.0244999994 0.993799984 -0.108499996
vn -0.0244999994 0.993799984 -0.108499996
vn -0.0244999994 0.993799984 -0.108499996
vn -0.0037 0 1
vn -0.0037 0 1
vn -0.0037 0 1
vn -0.0465000011 0.988799989 0.141800001
vn -0.0465000011 0.988799989 0.141800001
vn -0.0465000011 0.988799989 0.141800001
vn -0.0465000011 0.988799989 0.141800001
vn 0.0037 0 -1
vn 0.0037 0 -1
vn 0.0037 0 -1
vn 0.0037 0 -1
vn -0.0037 0 1
vn -0.0037 0 1
vn -0.0037 0 1
vn -0.0037 0 1
vn 0.0037 0 -1
vn 0.0037 0 -1
vn 0.0037 0 -1
vn 0.0037 0 -1
vn 0.0593000017 0.996999979 0.0489999987
vn 0.0593000017 0.996999979 0.0489999987
vn 0.0593000017 0.996999979 0.0489999987
vn 0.0593000017 0.996999979 0.0489999987
vn 1 0 0.0037
vn 1 0 0.0037
vn 1 0 0.0037
vn 1 0 0.0037
vn -0.99970001 -0.0251000002 -0.00469999993
vn -0.99970001 -0.0251000002 -0.00469999993
vn -0.99970001 -0.0251000002 -0.00469999993
vn -0.99970001 -0.0251000002 -0.00469999993
vn -0.0037 0 1
vn -0.0037 0 1
vn -0.0037 0 1
vn -0.0037 0 1
vn 0 1 -0
vn 0 1 -0
vn 0 1 -0
vn 0 1 -0
vn -0.0746999979 0.997200012 -0.00400000019
vn -0.0746999979 0.997200012 -0.00400000019
vn -0.0746999979 0.997200012 -0.00400000019
vn -0.0746999979 0.997200012 -0.00400000019
vn -1 0 -0.0037
vn -1 0 -0.0037
vn -1 0 -0.0037
vn -1 0 -0.0037
vn 1 0 0.0037
vn 1 0 0.0037
vn 1 0 0.0037
vn 1 0 0.0037
vn -1 0 -0.0037
vn -1 0 -0.0037
vn -1 0 -0.0037
vn -1 0 -0.0037
vn -1 0 -0.0037
vn -1 0 -0.0037
vn -1 0 -0.0037
vn -1 0 -0.0037
vn 0.164800003 0.986299992 0.00490000006
vn 0.164800003 0.986299992 0.00490000006
vn 0.164800003 0.986299992 0.00490000006
vn 0.164800003 0.986299992 0.00490000006
vn 0 1 -0
vn 0 1 -0
vn 0 1 -0
vn 0 1 -0
vn 1 0 0.0037
vn 1 0 0.0037
vn 1 0 0.0037
vn 1 0 0.0037
vn 0.0037 0 -1
vn 0.0037 0 -1
vn 0.0037 0 -1
vn 0.0037 0 -1
vn -1 0 -0.0037
vn -1 0 -0.0037
vn -1 0 -0.0037
vn -1 0 -0.0037
vn 1 0 0.0037
vn 1 0 0.0037
vn 1 0 0.0037
vn 1 0 0.0037
vn -0.0037 0 1
vn -0.0037 0 1
vn -0.0037 0 1
vn -0.0037 0 1
vn -0.0037 0 1
vn -0.0037 0 1
vn -0.0037 0 1
vn -0.0037 0 1
vn 1 0 0.0037
vn 1 0 0.0037
vn 1 0 0.0037
vn 1 0 0.0037
vn -1 0 -0.0037
vn -1 0 -0.0037
vn -1 0 -0.0037
vn -1 0 -0.0037
vn -1 0 -0.0037
vn -1 0 -0.0037
vn -1 0 -0.0037
vn -1 0 -0.0037
vn 0 1 -0
vn 0 1 -0
vn 0 1 -0
vn 0 1 -0
vn -0.0313000008 -0.0142000001 -0.99940002
vn -0.0313000008 -0.0142000001 -0.99940002
vn -0.0313000008 -0.0142000001 -0.99940002
vn -0.0313000008 -0.0142000001 -0.99940002
vn -0.0804999992 -0.0199999996 -0.996599972
vn -0.0804999992 -0.0199999996 -0.996599972
vn -0.0804999992 -0.0199999996 -0.996599972
vn -0.0804999992 -0.0199999996 -0.996599972
vn 0 1 -0
vn 0 1 -0
vn 0 1 -0
vn 0 1 -0
vn 1 0 0.0037
vn 1 0 0.0037
vn 1 0 0.0037
vn 1 0 0.0037
vn 1 0 0.0037
vn 1 0 0.0037
vn 1 0 0.0037
vn 1 0 0.0037
vn 0.0037 0 -1
vn 0.0037 0 -1
vn 0.0037 0 -1
vn 1 0 0.0037
vn 1 0 0.0037
vn 1 0 0.0037
vn -1 0 -0.0037
vn -1 0 -0.0037
vn -1 0 -0.0037
vn -1 0 -0.0037
vn -1 0 -0.0037
vn -1 0 -0.0037
vn -1 0 -0.0037
vn -0.0037 0 1
vn -0.0037 0 1
vn -0.0037 0 1
vn -0.0037 0 1
vn 0 1 -0
vn 0 1 -0
vn 0 1 -0
vn 0 1 -0
vn 1 0 0.0037
vn 1 0 0.0037
vn 1 0 0.0037
vn 1 0 0.0037
vn 0.0037 0 -1
vn 0.0037 0 -1
vn 0.0037 0 -1
vn 0.0037 0 -1
vn -0.0037 0 1
vn -0.0037 0 1
vn -0.0037 0 1
vn -0.0037 0 1
vn -0.0037 0 1
vn -0.0037 0 1
vn -0.0037 0 1
vn -0.0037 0 1
vn -0.0037 0 1
vn -0.0037 0 1
vn -0.0037 0 1
vn -0.0037 0 1
vn -0.0037 0 1
vn -0.0037 0 1
vn -0.0037 0 1
vn -0.0037 0 1
vn 0.0037 0 -1
vn 0.0037 0 -1
vn 0.0037 0 -1
vn 0.0037 0 -1
vn 0.0037 0 -1
vn 0.0037 0 -1
vn 0.0037 0 -1
vn 0.0037 0 -1
vn 0.0037 0 -1
vn 0.0037 0 -1
vn 0.0037 0 -1
vn 0.0037 0 -1
vn 1 0 0.0037
vn 1 0 0.0037
vn 1 0 0.0037
vn 1 0 0.0037
vn 1 0 0.0037
vn 1 0 0.0037
vn 1 0 0.0037
vn 1 0 0.0037
vn 1 0 0.0037
vn -1 0 -0.0037
vn -1 0 -0.0037
vn -1 0 -0.0037
vn -1 0 -0.0037
vn -1 0 -0.0037
vn -1 0 -0.0037
vn -1 0 -0.0037
vn -1 0 -0.0037
vn -1 0 -0.0037
vn -1 0 -0.0037
vn -1 0 -0.0037
vn -1 0 -0.0037
vn -1 0 -0.0037
vn -1 0 -0.0037
vn -1 0 -0.0037
vn 0.00630000001 1 -0.00359999994
vn -0.668600023 0.743399978 0.0199999996
vn -0.579200029 0.539799988 0.610899985
vn -0.0416000001 0.74119997 0.670000017
vn 0.667200029 0.744899988 0.0057000001
vn 0.00540000014 0.999899983 0.0121999998
vn -0.00870000012 0.744799972 0.667200029
vn 0.306499988 0.927999973 -0.211700007
vn 0.00540000014 0.999899983 0.0121999998
vn 0.0324999988 0.999499977 0.00190000003
vn 0.0408000015 0.670700014 0.74059999
vn -0.00870000012 0.744799972 0.667200029
vn 0.0324999988 0.999499977 0.00190000003
vn -0.0469999984 0.99849999 -0.0272000004
vn -0.0237000007 0.726499975 0.686800003
vn 0.0408000015 0.670700014 0.74059999
vn -0.0469999984 0.99849999 -0.0272000004
vn 0.00630000001 1 -0.00359999994
vn -0.0416000001 0.74119997 0.670000017
vn -0.0237000007 0.726499975 0.686800003
vn 0.695800006 0.713800013 -0.079400003
vn 0.0220999997 0.713400006 -0.700399995
vn 0.0136000002 0.999499977 0.0292000007
vn 0.688300014 0.725199997 0.0179999992
vn 0.688300014 0.725199997 0.0179999992
vn 0.0136000002 0.999499977 0.0292000007
vn 0.00960000046 0.999899983 0.0055999998
vn 0.663600028 0.748000026 0.0109000001
vn 0.663600028 0.748000026 0.0109000001
vn 0.00960000046 0.999899983 0.0055999998
vn 0.0197000001 0.999800026 9.99999975e-05
vn 0.68720001 0.726499975 0.00260000001
vn 0.68720001 0.726499975 0.00260000001
vn 0.0197000001 0.999800026 9.99999975e-05
vn 0.00540000014 0.999899983 0.0121999998
vn 0.667200029 0.744899988 0.0057000001
vn 0.0220999997 0.713400006 -0.700399995
vn -0.0436999984 0.717499971 -0.695100009
vn -0.0324000008 0.999300003 0.0184000004
vn 0.0136000002 0.999499977 0.0292000007
vn 0.0136000002 0.999499977 0.0292000007
vn -0.0324000008 0.999300003 0.0184000004
vn 0 1 -0
vn 0.00960000046 0.999899983 0.0055999998
vn 0.00960000046 0.999899983 0.0055999998
vn 0 1 -0
vn 0 1 -0
vn 0.0197000001 0.999800026 9.99999975e-05
vn 0.0197000001 0.999800026 9.99999975e-05
vn 0 1 -0
vn 0.0324999988 0.999499977 0.00190000003
vn 0.00540000014 0.999899983 0.0121999998
vn -0.0436999984 0.717499971 -0.695100009
vn 0.00260000001 0.729799986 -0.683600008
vn 0 1 -0
vn -0.0324000008 0.999300003 0.0184000004
vn -0.0324000008 0.999300003 0.0184000004
vn 0 1 -0
vn 0 1 -0
vn 0 1 -0
vn 0 1 -0
vn 0 1 -0
vn -0.0324000008 0.999300003 0.0184000004
vn 0 1 -0
vn 0 1 -0
vn -0.0324000008 0.999300003 0.0184000004
vn -0.0469999984 0.99849999 -0.0272000004
vn 0.0324999988 0.999499977 0.00190000003
vn 0.00260000001 0.729799986 -0.683600008
vn -0.00219999999 0.733099997 -0.680100024
vn 0.0120000001 0.999899983 -0.0105999997
vn 0 1 -0
vn 0 1 -0
vn 0.0120000001 0.999899983 -0.0105999997
vn 0.0474000014 0.99879998 -0.00960000046
vn 0 1 -0
vn 0 1 -0
vn 0.0474000014 0.99879998 -0.00960000046
vn 0.0645999983 0.997200012 0.0373999998
vn -0.0324000008 0.999300003 0.0184000004
vn -0.0324000008 0.999300003 0.0184000004
vn 0.0645999983 0.997200012 0.0373999998
vn 0.00630000001 1 -0.00359999994
vn -0.0469999984 0.99849999 -0.0272000004
vn -0.00219999999 0.733099997 -0.680100024
vn -0.610499978 0.529299974 -0.58920002
vn -0.751100004 0.660000026 -0.0167999994
vn 0.0120000001 0.999899983 -0.0105999997
vn 0.0120000001 0.999899983 -0.0105999997
vn -0.751100004 0.660000026 -0.0167999994
vn -0.710799992 0.703299999 -0.0164000001
vn 0.0474000014 0.99879998 -0.00960000046
vn 0.0474000014 0.99879998 -0.00960000046
vn -0.710799992 0.703299999 -0.0164000001
vn -0.685100019 0.727999985 0.0243999995
vn 0.0645999983 0.997200012 0.0373999998
vn 0.0645999983 0.997200012 0.0373999998
vn -0.685100019 0.727999985 0.0243999995
vn -0.668600023 0.743399978 0.0199999996
vn 0.00630000001 1 -0.00359999994
g 
usemtl /mat/None
f 13/1/1 4/2/2 92/3/3 91/4/4
f 6/5/5 5/6/6 89/7/7 88/8/8
f 19/9/9 20/10/10 49/11/11 50/12/12
f 22/13/13 13/14/14 32/15/15 34/16/16
f 10/17/17 2/18/18 30/19/19 31/20/20
f 14/21/21 16/22/22 12/23/23 11/24/24
f 1/25/25 2/18/26 10/17/27 9/26/28
f 7/27/29 8/28/30 16/22/31 14/21/32
f 18/29/33 4/2/34 13/1/35 22/30/36
f 9/26/37 10/17/38 13/31/39 15/32/40
f 23/33/41 18/29/42 22/30/43 26/34/44
f 25/35/45 62/36/46 61/37/47
f 25/35/48 21/38/49 20/39/50 28/40/51
f 24/41/52 28/40/53 20/39/54 19/42/55
f 3/43/56 4/2/57 18/29/58 17/44/59
f 5/6/60 6/5/61 28/40/62 24/41/63
f 12/45/64 25/35/65 28/40/66 6/5/67
f 23/46/68 26/47/69 40/48/70 35/49/71
f 12/23/72 16/22/73 37/50/74 38/51/75
f 17/44/76 18/29/77 23/33/78 27/52/79
f 33/53/80 31/20/81 30/19/82 29/54/83
f 34/55/84 32/56/85 31/20/86 33/53/87
f 20/10/88 29/54/89 52/57/90 49/11/91
f 13/31/92 10/17/93 31/20/94 32/56/95
f 20/10/96 21/58/97 33/53/98 29/54/99
f 21/58/100 22/59/101 34/55/102 33/53/103
f 37/50/104 40/48/105 39/60/106 38/51/107
f 36/61/108 35/49/109 40/48/110 37/50/111
f 23/46/112 35/49/113 45/62/114 41/63/115
f 25/64/116 12/65/117 38/66/118 39/67/119
f 16/22/120 8/28/121 36/61/122 37/50/123
f 26/47/124 25/68/125 39/60/126 40/48/127
f 44/69/128 41/70/129 42/71/130 43/72/131
f 42/71/132 41/70/133 45/73/134 46/74/135
f 27/75/136 23/46/137 41/63/138 44/76/139
f 36/61/140 8/28/141 42/77/142 46/78/143
f 8/28/144 7/27/145 43/79/146 42/77/147
f 35/49/148 36/61/149 46/78/150 45/62/151
f 50/80/152 49/81/153 48/82/154 47/83/155
f 48/82/156 49/81/157 52/84/158 51/85/159
f 29/54/160 30/19/161 51/86/162 52/57/163
f 2/18/164 1/25/165 47/87/166 48/88/167
f 30/19/168 2/18/169 48/88/170 51/86/171
f 22/30/172 63/89/173 64/90/174
f 69/91/175 70/92/176 25/68/177
f 22/59/178 21/58/179 55/93/180
f 90/94/181 87/95/182 88/96/183 89/97/184
f 11/24/185 12/23/186 87/95/187 90/94/188
f 12/45/189 6/5/190 88/8/191 87/98/192
f 94/99/193 91/100/194 92/101/195 93/102/196
f 15/103/197 13/104/198 91/105/199 94/106/200
f 4/2/201 3/43/202 93/107/203 92/3/204
f 54/108/205 21/38/206 59/109/207
f 21/38/208 25/35/209 61/37/210
f 61/37/211 60/110/212 21/38/213
f 60/110/214 59/109/215 21/38/216
f 26/34/217 22/30/218 65/111/219
f 66/112/220 26/34/221 65/111/222
f 22/30/223 53/113/224 63/89/225
f 64/90/226 65/111/227 22/30/228
f 25/68/229 26/47/230 69/91/231
f 67/114/232 68/115/233 26/47/234
f 68/115/235 69/91/236 26/47/237
f 21/58/238 54/116/239 58/117/240
f 57/118/241 56/119/242 55/93/243
f 21/58/244 58/117/245 57/118/246
f 55/93/247 53/120/248 22/59/249
f 21/58/250 57/118/251 55/93/252
f 86/121/253 58/122/254 54/123/255 59/124/256
f 70/125/257 74/126/258 62/127/259 25/128/260
f 74/126/261 78/129/262 61/130/263 62/127/264
f 78/129/265 82/131/266 60/132/267 61/130/268
f 82/131/269 86/121/270 59/124/271 60/132/272
f 26/133/273 66/134/274 71/135/275 67/136/276
f 67/136/277 71/135/278 72/137/279 68/138/280
f 68/138/281 72/137/282 73/139/283 69/140/284
f 69/140/285 73/139/286 74/126/287 70/125/288
f 66/134/289 65/141/290 75/142/291 71/135/292
f 71/135/293 75/142/294 76/143/295 72/137/296
f 72/137/297 76/143/298 77/144/299 73/139/300
f 73/139/301 77/144/302 78/129/303 74/126/304
f 65/141/305 64/145/306 79/146/307 75/142/308
f 75/142/309 79/146/310 80/147/311 76/143/312
f 76/143/313 80/147/314 81/148/315 77/144/316
f 77/144/317 81/148/318 82/131/319 78/129/320
f 64/145/321 63/149/322 83/150/323 79/146/324
f 79/146/325 83/150/326 84/151/327 80/147/328
f 80/147/329 84/151/330 85/152/331 81/148/332
f 81/148/333 85/152/334 86/121/335 82/131/336
f 63/149/337 53/153/338 55/154/339 83/150/340
f 83/150/341 55/154/342 56/155/343 84/151/344
f 84/151/345 56/155/346 57/156/347 85/152/348
f 85/152/349 57/156/350 58/122/351 86/121/352
