# File exported by Houdini 19.0.498 (www.sidefx.com)
# 64 points
# 260 vertices
# 65 primitives
# Bounds: [7.47451687, 0.478841007, -2.95352793] to [10.8191471, 9.20253754, 0.213536993]
g 
v 10.2109966 0.478841007 -2.34537697
v 10.2109966 9.20253754 -2.34537697
v 10.2109966 0.478841007 -2.95352793
v 10.2109966 9.20253754 -2.95352793
v 10.8191471 0.478841007 -2.34537697
v 10.8191471 9.20253754 -2.34537697
v 10.8191471 0.478841007 -2.95352793
v 10.8191471 9.20253754 -2.95352793
v 10.3077326 8.81223679 -2.34537697
v 10.2109966 8.82514572 -2.86970091
v 10.8191471 8.90897274 -2.95352793
v 10.7224112 8.81223679 -2.34537697
v 10.2109966 8.45841503 -2.86970091
v 10.8191471 8.37458801 -2.95352793
v 10.7224112 8.47132397 -2.34537697
v 10.3077326 8.47132397 -2.34537697
v 10.2109966 8.45841503 -2.42920399
v 10.2109966 8.82514572 -2.42920399
v 10.8191471 8.90897274 -2.34537697
v 10.8191471 8.37458801 -2.34537697
v 10.2109966 8.37458801 -2.34537697
v 10.2109966 8.90897274 -2.34537697
v 10.2109966 8.90897274 -2.95352793
v 10.2109966 8.37458801 -2.95352793
v 10.3077326 8.47132397 0.213536993
v 10.3077326 8.81223679 0.213536993
v 10.7224112 8.81223679 0.213536993
v 10.7224112 8.47132397 0.213536993
v 7.47451687 8.45841503 -2.42920399
v 7.47451687 8.82514572 -2.42920399
v 7.47451687 8.82514572 -2.86970091
v 7.47451687 8.45841503 -2.86970091
v 10.7224112 8.81223679 0.123873003
v 10.7224112 8.47132397 0.123873003
v 10.3077326 8.47132397 0.123873003
v 10.3077326 8.81223679 0.123873003
v 10.7224112 8.47132397 -0.206531003
v 10.3077326 8.81223679 -0.206531003
v 10.7224112 8.81223679 -0.206531003
v 10.3077326 8.47132397 -0.206531003
v 7.57770205 8.45841503 -2.42920399
v 7.57770205 8.45841503 -2.86970091
v 7.57770205 8.82514572 -2.86970091
v 7.57770205 8.82514572 -2.42920399
v 8.00954628 8.45841503 -2.86970091
v 8.00954628 8.82514572 -2.42920399
v 8.00954628 8.45841503 -2.42920399
v 8.00954628 8.82514572 -2.86970091
v 10.2822037 6.30352116 -2.34537697
v 10.2822037 5.96290302 -2.34537697
v 10.7479401 5.96290302 -2.34537697
v 10.7479401 6.30352116 -2.34537697
v 10.2109966 6.32276487 -2.39733911
v 10.2109966 5.94365788 -2.39733911
v 10.2109966 5.94365788 -2.90156603
v 10.2109966 6.32276487 -2.90156603
v 10.8191471 5.89169598 -2.95352793
v 10.8191471 6.3747282 -2.95352793
v 10.2109966 6.3747282 -2.95352793
v 10.2109966 5.89169598 -2.95352793
v 10.8191471 6.3747282 -2.34537697
v 10.8191471 5.89169598 -2.34537697
v 10.2109966 5.89169598 -2.34537697
v 10.2109966 6.3747282 -2.34537697
vt 0.965681255 0.139337361 0
vt 0.999302983 0.1393179 0
vt 0.999338746 0.208976731 0
vt 0.965717077 0.208996311 0
vt 0.99938941 0.278635621 0
vt 0.965767682 0.278655142 0
vt 0.965594828 1.95825432e-05 0
vt 0.999231339 0 0
vt 0.999267161 0.06965895 0
vt 0.965645492 0.0696785226 0
vt 0.82421875 0.280279905 0
vt 0.893878698 0.280273438 0
vt 0.893878698 0.349925667 0
vt 0.82421875 0.349932104 0
vt 0.287446678 0.640347123 0
vt 0.289150536 0.601335466 0
vt 0.299417704 0.60178411 0
vt 0.297713846 0.640795827 0
vt 0.904383421 5.50365148e-05 0
vt 0.904434085 0.0697139725 0
vt 0.90450567 0.20903182 0
vt 0.904556334 0.278690636 0
vt 0.976231039 0.62078011 0
vt 0.974354029 0.570360065 0
vt 0.986170292 0.569922507 0
vt 0.98803252 0.620343804 0
vt 0.675402582 0.139505714 0
vt 0.904469848 0.13937293 0
vt 0.675438404 0.209164664 0
vt 0.675489008 0.278823525 0
vt 0.675316155 0.000187933401 0
vt 0.675366819 0.069846876 0
vt 0.915545225 0.128286093 0
vt 0.954589784 0.128263384 0
vt 0.954570115 0.0807652473 0
vt 0.915510714 0.080787845 0
vt 0.95609051 0.148944601 0
vt 0.91407454 0.148968995 0
vt 0.956112385 0.199400127 0
vt 0.914111257 0.199424446 0
vt 0.943014681 0.324226558 0
vt 0.943006039 0.363285869 0
vt 0.895507812 0.363278031 0
vt 0.895516455 0.32421875 0
vt 0.291222543 0.55388248 0
vt 0.292926431 0.514870763 0
vt 0.303193599 0.515319407 0
vt 0.301489741 0.554331124 0
vt 0.294998437 0.467417777 0
vt 0.305265635 0.467866451 0
vt 0.945975959 0.280284941 0
vt 0.945963383 0.322285205 0
vt 0.895507812 0.322273731 0
vt 0.895520389 0.280273438 0
vt 0.972812951 0.528381646 0
vt 0.970935881 0.47796163 0
vt 0.982752144 0.477524072 0
vt 0.984614372 0.52794534 0
vt 0.969379961 0.435984433 0
vt 0.981196225 0.435546875 0
vt 0.251350492 0.599685073 0
vt 0.253422529 0.552232087 0
vt 0.418945312 0.409104615 0
vt 0.419209301 0.361607164 0
vt 0.822394788 0.360941261 0
vt 0.822088897 0.414286911 0
vt 0.255126387 0.513220429 0
vt 0.249646634 0.638696849 0
vt 0.0048828125 0.628007472 0
vt 0.00658667646 0.588995755 0
vt 0.0086586969 0.541542828 0
vt 0.010362559 0.502531111 0
vt 0.0124345869 0.455078125 0
vt 0.257198423 0.465767473 0
vt 0.924933791 0.572188616 0
vt 0.923377872 0.530211449 0
vt 0.921515644 0.479790121 0
vt 0.919959724 0.437812954 0
vt 0.036366187 0.403722823 0
vt 0.000539962552 0.369626284 0
vt 0.417626083 0.368843347 0
vt 0.387691408 0.400305092 0
vt 0.674805045 0.631936073 0
vt 0.672942817 0.581514776 0
vt 0.926796019 0.622609854 0
vt 0.671386898 0.539537549 0
vt 0.66952467 0.489116311 0
vt 0.66796875 0.447139114 0
vt 3.57926401e-05 0.0702385604 0
vt 0.620038807 0.0698789805 0
vt 0.62007463 0.139537811 0
vt 7.15853676e-05 0.13989751 0
vt 0.445720643 0.334592134 0
vt 0.445182323 0.287096888 0
vt 0.79394424 0.280273438 0
vt 0.794544697 0.333616614 0
vt 0 0.319173694 0
vt 0.417005867 0.311091453 0
vt 0.445146292 0.436414659 0
vt 0.793943286 0.441298187 0
vt 0.036341574 0.454178184 0
vt 0.387657911 0.458060265 0
vt 0.0350977369 0.284322888 0
vt 0.386415988 0.280273438 0
vt 0 0.000579722866 0
vt 0.619988203 0.000220154107 0
vt 0.000122235186 0.209556386 0
vt 0.620110393 0.209196702 0
vt 0.620161057 0.278855592 0
vt 0.000158027862 0.279215276 0
vt 0.626063824 0.203241512 0
vt 0.669491172 0.203216314 0
vt 0.626036644 0.145486206 0
vt 0.66944921 0.145461142 0
vt 0.667216182 0.0780077502 0
vt 0.628201306 0.0780303106 0
vt 0.628225267 0.131376833 0
vt 0.667240083 0.131354257 0
vn -1 0 0
vn -1 0 0
vn -1 0 0
vn -1 0 0
vn 0 0 -1
vn 0 0 -1
vn 0 0 -1
vn 0 0 -1
vn 1 0 0
vn 1 0 0
vn 1 0 0
vn 1 0 0
vn 0 0 1
vn 0 0 1
vn 0 0 1
vn 0 0 1
vn 0 1 0
vn 0 1 0
vn 0 1 0
vn 0 1 0
vn 1 0 0
vn 1 0 0
vn 1 0 0
vn 1 0 0
vn 1 0 0
vn 1 0 0
vn 1 0 0
vn 1 0 0
vn 0 0 -1
vn 0 0 -1
vn 0 0 -1
vn 0 0 -1
vn 0 -1 0
vn 0 -1 0
vn 0 -1 0
vn 0 -1 0
vn -1 0 0
vn -1 0 0
vn -1 0 0
vn -1 0 0
vn 0 0 -1
vn 0 0 -1
vn 0 0 -1
vn 0 0 -1
vn 1 0 0
vn 1 0 0
vn 1 0 0
vn 1 0 0
vn 0 0 1
vn 0 0 1
vn 0 0 1
vn 0 0 1
vn 0 0 1
vn 0 0 1
vn 0 0 1
vn 0 0 1
vn 0 0 1
vn 0 0 1
vn 0 0 1
vn 0 0 1
vn 0 0 1
vn 0 0 1
vn 0 0 1
vn 0 0 1
vn 0 0 1
vn 0 0 1
vn 0 0 1
vn 0 0 1
vn -1 0 0
vn -1 0 0
vn -1 0 0
vn -1 0 0
vn -1 0 0
vn -1 0 0
vn -1 0 0
vn -1 0 0
vn -1 0 0
vn -1 0 0
vn -1 0 0
vn -1 0 0
vn -1 0 0
vn -1 0 0
vn -1 0 0
vn -1 0 0
vn 0 0 1
vn 0 0 1
vn 0 0 1
vn 0 0 1
vn -1 0 0
vn -1 0 0
vn -1 0 0
vn -1 0 0
vn 0 -1 0
vn 0 -1 0
vn 0 -1 0
vn 0 -1 0
vn 0 1 0
vn 0 1 0
vn 0 1 0
vn 0 1 0
vn -1 0 0
vn -1 0 0
vn -1 0 0
vn -1 0 0
vn 0 1 0
vn 0 1 0
vn 0 1 0
vn 0 1 0
vn 0 0 -1
vn 0 0 -1
vn 0 0 -1
vn 0 0 -1
vn 0 0 1
vn 0 0 1
vn 0 0 1
vn 0 0 1
vn 0 1 0
vn 0 1 0
vn 0 1 0
vn 0 1 0
vn 0 -0.701499999 0.712599993
vn 0 -0.701499999 0.712599993
vn 0 -0.701499999 0.712599993
vn 0 -0.701499999 0.712599993
vn -1 0 0
vn -1 0 0
vn -1 0 0
vn -1 0 0
vn 1 0 0
vn 1 0 0
vn 1 0 0
vn 1 0 0
vn 1 0 0
vn 1 0 0
vn 1 0 0
vn 1 0 0
vn -1 0 0
vn -1 0 0
vn -1 0 0
vn -1 0 0
vn 0 -1 0
vn 0 -1 0
vn 0 -1 0
vn 0 -1 0
vn 0 1 0
vn 0 1 0
vn 0 1 0
vn 0 1 0
vn 0 0 1
vn 0 0 1
vn 0 0 1
vn 0 0 1
vn 0 0 -1
vn 0 0 -1
vn 0 0 -1
vn 0 0 -1
vn 0 1 0
vn 0 1 0
vn 0 1 0
vn 0 1 0
vn -0.00630000001 0.00719999988 1
vn -0.00630000001 0.00719999988 1
vn -0.00630000001 0.00719999988 1
vn -0.00630000001 0.00719999988 1
vn 0 -1 0
vn 0 -1 0
vn 0 -1 0
vn 0 -1 0
vn 0 1 0
vn 0 1 0
vn 0 1 0
vn 0 1 0
vn 0 0 -1
vn 0 0 -1
vn 0 0 -1
vn 0 0 -1
vn 0 0 1
vn 0 0 1
vn 0 0 1
vn 0 0 1
vn 0 0 1
vn 0 0 1
vn 0 0 1
vn 0 0 1
vn 0 0.702300012 -0.711799979
vn 0 0.702300012 -0.711799979
vn 0 0.702300012 -0.711799979
vn 0 0.702300012 -0.711799979
vn -0.690599978 -0.723200023 0
vn -0.690599978 -0.723200023 0
vn -0.690599978 -0.723200023 0
vn -0.690599978 -0.723200023 0
vn 1 0.00540000014 0.0055999998
vn 1 0.00540000014 0.0055999998
vn 1 0.00540000014 0.0055999998
vn 1 0.00540000014 0.0055999998
vn 0.69630003 0.717800021 0
vn 0.69630003 0.717800021 0
vn 0.69630003 0.717800021 0
vn 0.69630003 0.717800021 0
vn -0.00630000001 0.00719999988 -1
vn -0.00630000001 0.00719999988 -1
vn -0.00630000001 0.00719999988 -1
vn -0.00630000001 0.00719999988 -1
vn -1 0.00540000014 0.0055999998
vn -1 0.00540000014 0.0055999998
vn -1 0.00540000014 0.0055999998
vn -1 0.00540000014 0.0055999998
vn 1 0 0
vn 1 0 0
vn 1 0 0
vn 1 0 0
vn 0 0 -1
vn 0 0 -1
vn 0 0 -1
vn 0 0 -1
vn -1 0 0
vn -1 0 0
vn -1 0 0
vn -1 0 0
vn 1 0 0
vn 1 0 0
vn 1 0 0
vn 1 0 0
vn 0 0 -1
vn 0 0 -1
vn 0 0 -1
vn 0 0 -1
vn -1 0 0
vn -1 0 0
vn -1 0 0
vn -1 0 0
vn -1 0 0
vn -1 0 0
vn -1 0 0
vn -1 0 0
vn -1 0 0
vn -1 0 0
vn -1 0 0
vn -1 0 0
vn -1 0 0
vn -1 0 0
vn -1 0 0
vn -1 0 0
vn 0 0 1
vn 0 0 1
vn 0 0 1
vn 0 0 1
vn 0 0 1
vn 0 0 1
vn 0 0 1
vn 0 0 1
vn 0 0 1
vn 0 0 1
vn 0 0 1
vn 0 0 1
vn 0 0 1
vn 0 0 1
vn 0 0 1
vn 0 0 1
g 
usemtl /mat/None
f 22/1/1 2/2/2 4/3/3 23/4/4
f 23/4/5 4/3/6 8/5/7 11/6/8
f 11/7/9 8/8/10 6/9/11 19/10/12
f 19/10/13 6/9/14 2/2/15 22/1/16
f 8/11/17 4/12/18 2/13/19 6/14/20
f 34/15/21 33/16/22 27/17/23 28/18/24
f 14/19/25 11/7/26 19/10/27 20/20/28
f 24/21/29 23/4/30 11/6/31 14/22/32
f 42/23/33 41/24/34 29/25/35 32/26/36
f 64/27/37 21/28/38 24/21/39 59/29/40
f 59/29/41 24/21/42 14/22/43 58/30/44
f 58/31/45 14/19/46 20/20/47 61/32/48
f 61/32/49 20/20/50 21/28/51 64/27/52
f 16/33/53 9/34/54 22/1/55 21/28/56
f 9/34/57 12/35/58 19/10/59 22/1/60
f 12/35/61 15/36/62 20/20/63 19/10/64
f 15/36/65 16/33/66 21/28/67 20/20/68
f 18/37/69 17/38/70 21/28/71 22/1/72
f 10/39/73 18/37/74 22/1/75 23/4/76
f 13/40/77 10/39/78 23/4/79 24/21/80
f 17/38/81 13/40/82 24/21/83 21/28/84
f 28/41/85 27/42/86 26/43/87 25/44/88
f 36/45/89 35/46/90 25/47/91 26/48/92
f 35/46/93 34/49/94 28/50/95 25/47/96
f 33/16/97 36/45/98 26/48/99 27/17/100
f 29/51/101 30/52/102 31/53/103 32/54/104
f 44/55/105 43/56/106 31/57/107 30/58/108
f 43/56/109 42/59/110 32/60/111 31/57/112
f 41/24/113 44/55/114 30/58/115 29/25/116
f 39/61/117 38/62/118 36/45/119 33/16/120
f 34/63/121 35/64/122 50/65/123 51/66/124
f 38/62/125 40/67/126 35/46/127 36/45/128
f 37/68/129 39/61/130 33/16/131 34/15/132
f 15/69/133 12/70/134 39/61/135 37/68/136
f 9/71/137 16/72/138 40/67/139 38/62/140
f 16/72/141 15/73/142 37/74/143 40/67/144
f 12/70/145 9/71/146 38/62/147 39/61/148
f 47/75/149 46/76/150 44/55/151 41/24/152
f 48/77/153 45/78/154 42/59/155 43/56/156
f 46/76/157 48/77/158 43/56/159 44/55/160
f 47/79/161 41/80/162 54/81/163 53/82/164
f 13/83/165 17/84/166 47/75/167 45/85/168
f 18/86/169 10/87/170 48/77/171 46/76/172
f 10/87/173 13/88/174 45/78/175 48/77/176
f 17/84/177 18/86/178 46/76/179 47/75/180
f 5/89/181 62/90/182 63/91/183 1/92/184
f 40/93/185 37/94/186 52/95/187 49/96/188
f 41/80/189 42/97/190 55/98/191 54/81/192
f 37/99/193 34/63/194 51/66/195 52/100/196
f 45/101/197 47/79/198 53/82/199 56/102/200
f 42/97/201 45/103/202 56/104/203 55/98/204
f 35/64/205 40/93/206 49/96/207 50/65/208
f 7/105/209 57/106/210 62/90/211 5/89/212
f 3/107/213 60/108/214 57/109/215 7/110/216
f 1/92/217 63/91/218 60/108/219 3/107/220
f 57/106/221 58/31/222 61/32/223 62/90/224
f 60/108/225 59/29/226 58/30/227 57/109/228
f 55/111/229 56/112/230 59/29/231 60/108/232
f 54/113/233 55/111/234 60/108/235 63/91/236
f 53/114/237 54/113/238 63/91/239 64/27/240
f 56/112/241 53/114/242 64/27/243 59/29/244
f 52/115/245 51/116/246 62/90/247 61/32/248
f 51/116/249 50/117/250 63/91/251 62/90/252
f 50/117/253 49/118/254 64/27/255 63/91/256
f 49/118/257 52/115/258 61/32/259 64/27/260
